<?xml version="1.0" encoding="UTF-8"?>
<svg xmlns="http://www.w3.org/2000/svg" viewBox="0 0 57.56 100">
  <rect width="57.56" height="100" fill="#061733" />
  <path fill="#fff" d="M57.56,13.1c0,7.27-7.6,10.19-11.59,11.64-4,1.46-29.98,11.15-34.78,13.1C6.4,39.77,0,41.23,0,48.5v-13.1C0,28.13,6.4,26.68,11.19,24.74c4.8-1.94,30.78-11.64,34.78-13.1,4-1.45,11.59-4.37,11.59-11.64v13.09h0Z"/>
  <path fill="#fff" d="M57.56,38.84c0,7.27-7.6,10.19-11.59,11.64s-29.98,11.16-34.78,13.1c-4.8,1.94-11.19,3.4-11.19,10.67v-13.1c0-7.27,6.4-8.73,11.19-10.67,4.8-1.94,30.78-11.64,34.78-13.1,4-1.46,11.59-4.37,11.59-11.64v13.09h0Z"/>
  <path fill="#fff" d="M57.56,64.59c0,7.27-7.6,10.19-11.59,11.64-4,1.46-29.98,11.15-34.78,13.1-4.8,1.94-11.19,3.39-11.19,10.67v-13.1c0-7.27,6.4-8.73,11.19-10.67,4.8-1.94,30.78-11.64,34.78-13.1,4-1.45,11.59-4.37,11.59-11.64v13.1h0Z"/>
</svg>