<?xml version="1.0" encoding="UTF-8"?>
<svg id="a" xmlns="http://www.w3.org/2000/svg" viewBox="0 0 1000 1000">
  <path d="M180.77,397.2c5.12,2.1,10.13,5.01,15.13,8.85,1.4,1.05,2.56,1.63,3.49,1.63,2.44,0,4.07-3.73,4.77-11.06h4.19c-.47,8.38-.7,23.17-.7,44.47h-4.19c-1.05-9.08-2.56-15.95-4.42-20.72-1.86-4.77-5.01-8.96-9.43-12.46-3.03-2.91-6.64-5.12-10.71-6.75-4.07-1.51-8.27-2.33-12.69-2.33-12.34,0-21.54,6.05-27.59,18.16-6.05,12.11-8.96,27.13-8.96,45.17s3.14,32.83,9.43,44.82c6.29,11.99,15.6,18.05,27.94,18.05,4.19,0,8.27-.81,12.46-2.33,4.07-1.51,7.57-3.73,10.36-6.75,4.54-3.38,7.68-7.68,9.43-12.92,1.75-5.12,3.14-12.69,4.19-22.59h4.19c0,22.24.23,37.6.7,46.34h-4.19c-.35-3.96-.93-6.75-1.51-8.38-.7-1.63-1.63-2.44-2.79-2.44-.93,0-2.21.47-3.84,1.51-5.47,3.96-10.83,6.87-15.83,8.96-5.01,1.98-11.06,3.03-18.16,3.03-13.04,0-24.33-2.68-34.11-7.92s-17.35-12.92-22.7-22.93c-5.36-10.01-8.03-21.89-8.03-35.74s2.79-25.38,8.27-35.86c5.47-10.36,13.16-18.51,23.05-24.22,9.9-5.7,21.07-8.62,33.76-8.62,7.1-.12,13.39.93,18.51,3.03h0Z"/>
  <path d="M251.9,446.21c5.47-11.41,15.48-17.11,29.92-17.11,9.55,0,16.3,2.44,20.26,7.22,2.1,2.33,3.61,5.36,4.54,9.08.93,3.73,1.4,8.62,1.4,14.79v49.48c0,5.01.81,8.5,2.56,10.36,1.75,1.86,4.77,2.79,9.2,2.79v3.84c-12.81-.47-36.44-.47-48.2,0v-3.84c3.73,0,6.29-.93,7.68-2.79,1.51-1.86,2.21-5.36,2.21-10.36v-57.16c0-5.01-.81-8.85-2.44-11.41-1.63-2.56-4.66-3.84-8.96-3.84-5.12,0-9.43,1.98-12.92,5.94-3.49,3.96-5.24,9.08-5.24,15.13v51.34c0,5.01.7,8.5,2.21,10.36,1.51,1.86,4.07,2.79,7.68,2.79v3.84c-11.76-.47-35.39-.47-48.2,0v-3.84c4.31,0,7.33-.93,9.08-2.79,1.75-1.86,2.68-5.36,2.68-10.36v-104.66c0-5.59-.93-9.78-2.68-12.34-1.75-2.56-4.77-3.84-9.08-3.84v-3.84c3.96.35,7.68.58,11.41.58,10.71,0,19.56-.81,26.89-2.56v63.22h0Z"/>
  <path d="M560.42,520.02c1.75,1.86,4.77,2.79,9.08,2.79v3.84c-12.22-.47-35.28-.47-47.03,0v-3.84c3.26,0,5.59-.93,6.87-2.79,1.28-1.86,1.98-5.36,1.98-10.48v-57.05c0-5.12-.81-8.96-2.33-11.53-1.51-2.56-4.42-3.73-8.73-3.73-4.54,0-8.5,1.86-11.88,5.7-3.38,3.84-5.36,8.5-5.94,13.97v52.74c0,5.01.81,8.5,2.33,10.36,1.51,1.86,4.31,2.79,8.38,2.79v3.84c-11.76-.47-34.23-.47-45.99,0v-3.84c3.26,0,5.59-.93,6.87-2.79,1.28-1.86,1.98-5.36,1.98-10.36v-57.16c0-5.12-.7-8.96-1.98-11.53-1.4-2.56-3.96-3.73-7.92-3.73-4.89,0-9.08,2.1-12.57,6.17-3.49,4.07-5.24,9.2-5.24,15.13v51.11c0,5.01.7,8.5,1.98,10.36,1.28,1.86,3.61,2.79,6.87,2.79v3.84c-10.83-.47-33.88-.47-47.03,0v-3.84c4.42,0,7.45-.93,9.2-2.79,1.75-1.86,2.56-5.36,2.56-10.36v-57.86c0-5.59-.81-9.78-2.56-12.34s-4.77-3.84-9.2-3.84v-3.84c3.96.35,7.68.58,11.41.58,10.94,0,19.91-.81,26.89-2.56v16.53c5.36-11.41,14.9-17.11,28.52-17.11,9.31,0,16.07,2.44,20.26,7.22,2.33,2.44,3.84,6.17,4.54,11.06,3.14-6.64,7.33-11.29,12.46-14.09,5.12-2.79,11.18-4.19,18.05-4.19,9.31,0,16.07,2.44,20.26,7.22,1.98,2.21,3.38,5.24,4.19,8.96.81,3.84,1.28,8.73,1.28,14.9v49.48c-.23,4.89.58,8.38,2.44,10.25h0Z"/>
  <path d="M654.26,441.32c6.17,8.15,9.2,19.91,9.2,35.39,0,18.05-3.96,31.32-11.76,39.82-7.8,8.5-17.93,12.81-30.39,12.81-8.5,0-15.37-2.1-20.61-6.4-4.42-.35-8.85.12-13.27,1.51-4.42,1.4-7.92,3.14-10.48,5.36l-2.79-1.63c.81-3.03,1.28-6.52,1.28-10.25v-112.93c0-5.59-.93-9.78-2.68-12.34-1.75-2.56-4.77-3.84-9.08-3.84v-3.84c3.84.35,7.57.58,11.41.58,10.71,0,19.56-.81,26.89-2.56v63.57c2.56-5.59,6.29-10.01,11.18-12.92,4.89-3.03,10.59-4.54,16.88-4.54,10.01,0,18.05,4.07,24.22,12.22h0ZM630.63,514.09c3.26-7.57,5.01-19.21,5.01-34.69s-1.4-25.85-4.19-32.48c-2.79-6.52-6.87-9.78-12.11-9.78-3.96,0-7.57,1.4-10.71,4.31-3.26,2.91-5.47,6.75-6.52,11.64v67.52c4.07,3.26,8.62,5.01,13.62,5.01,6.64-.12,11.64-3.96,14.9-11.53Z"/>
  <path d="M746.93,499.54l3.26,1.05c-2.44,7.92-6.87,14.79-13.16,20.37-6.29,5.59-14.2,8.38-23.63,8.38-13.04,0-23.28-4.19-30.97-12.46-7.68-8.27-11.53-20.49-11.53-36.67s4.07-29.22,12.34-37.95,19.09-13.16,32.71-13.16c23.05,0,34.58,13.62,34.58,40.86h-51.69c-.12,1.86-.23,4.77-.23,8.62,0,8.03,1.16,14.79,3.38,20.26,2.21,5.36,5.24,9.31,8.85,11.76,3.61,2.44,7.45,3.73,11.64,3.73,10.25,0,18.28-5.01,24.45-14.79h0ZM703.97,441.21c-2.91,5.47-4.66,13.85-5.47,25.26h28.87c.23-9.66-.7-17.7-2.79-23.98-2.1-6.29-5.36-9.43-9.66-9.43s-8.03,2.68-10.94,8.15h0Z"/>
  <path d="M827.38,434.11c2.79,3.26,4.19,7.33,4.19,11.99s-1.28,8.27-3.96,11.18c-2.68,2.91-6.05,4.31-10.36,4.31s-7.45-1.05-9.9-3.26c-2.44-2.1-3.73-5.01-3.73-8.5,0-5.94,2.68-10.71,8.03-14.32-.47-.12-1.28-.23-2.21-.23-1.28,0-2.21.12-2.91.35-4.66.7-8.62,3.61-11.88,8.5-3.26,4.89-4.89,9.9-4.89,15.13v48.78c0,5.59,1.4,9.55,4.19,11.76,2.79,2.21,7.1,3.26,13.16,3.26v3.84c-1.75,0-3.14-.12-4.19-.23-12.46-.35-35.86-.35-47.62,0-.93.12-2.21.23-3.73.23v-3.84c4.42,0,7.45-.93,9.2-2.79s2.56-5.36,2.56-10.36v-58.09c0-5.59-.81-9.78-2.56-12.34s-4.77-3.84-9.2-3.84v-3.84c3.96.35,7.68.58,11.41.58,10.94,0,19.91-.81,26.89-2.56v17.11c2.33-5.24,5.7-9.55,10.13-12.81,4.42-3.26,9.43-4.89,14.9-4.89,5.47-.12,9.66,1.63,12.46,4.89h0Z"/>
  <path d="M878.26,430.85c3.96,1.16,6.87,2.44,8.96,3.96,1.28.81,2.33,1.28,3.26,1.28,1.05,0,2.1-.58,2.79-1.75.81-1.16,1.28-2.79,1.51-5.01h3.84c-.47,6.29-.7,17-.7,32.37h-3.84c-1.05-8.03-3.49-14.9-7.22-20.37-3.73-5.47-9.2-8.15-16.3-8.15-3.73,0-6.75,1.05-9.08,3.14-2.44,2.1-3.61,5.01-3.61,8.62,0,4.19,1.4,7.8,4.19,10.71,2.79,3.03,7.22,6.64,13.27,10.94l5.36,3.84c7.45,5.59,13.04,10.71,16.53,15.13,3.61,4.42,5.36,9.9,5.36,16.53,0,5.36-1.51,10.13-4.66,14.32-3.14,4.19-7.33,7.33-12.57,9.55-5.24,2.21-11.06,3.26-17.46,3.26-6.75,0-12.46-1.28-17.23-3.84-3.96-1.98-6.75-3.26-8.5-3.84-1.28-.35-2.33,0-3.26,1.16-.93,1.16-1.63,2.91-2.1,5.24h-3.84c.47-6.99.7-19.21.7-36.79h3.84c2.44,22.59,10.71,33.88,24.8,33.88,3.61,0,6.64-1.05,9.08-3.26,2.56-2.1,3.73-5.47,3.73-9.78,0-3.38-.81-6.52-2.33-9.2-1.51-2.68-3.49-5.12-5.82-7.22-2.33-2.1-5.82-5.01-10.48-8.62-5.47-4.42-9.66-7.92-12.57-10.71-2.91-2.68-5.36-5.94-7.33-9.55-1.98-3.61-3.03-7.8-3.03-12.34,0-7.8,3.03-14.09,9.2-18.63,6.17-4.54,13.62-6.75,22.47-6.75,4.89.12,9.08.7,13.04,1.86h0Z"/>
  <path d="M316.87,560.07c-3.96,0-7.1-.12-9.31-.23v1.86c2.44.12,4.19.47,5.36.93,1.16.47,1.98,1.4,2.33,2.44.35,1.16.58,2.91.58,5.24v29.8l-28.99-40.4c-2.33.23-5.12.23-8.38.23-3.61,0-6.4-.12-8.5-.23v1.86c2.21.12,3.73.35,4.77.7s1.63,1.05,2.1,2.1c.35,1.05.58,2.68.58,5.01v35.16c0,2.33-.23,4.07-.58,5.24s-1.05,1.98-2.1,2.56c-1.05.47-7.22,3.49-10.94-4.89l-21.31-48.08h-1.4l-20.14,45.52c-1.05,2.33-2.1,4.31-3.26,5.7s-2.56,2.33-4.19,2.79v1.86c1.63-.23,14.32-.23,16.18,0v-1.86c-2.44-.23-4.31-.81-5.36-1.63-1.16-.93-1.63-2.1-1.63-3.73,0-1.51.47-3.49,1.51-5.82l3.14-6.87h22.12l4.66,10.36c.81,1.86,1.28,3.26,1.28,4.31,0,1.16-.58,1.98-1.63,2.44-1.05.47-2.68.81-5.01.93v1.86c2.56-.23,36.91-.23,39,0v-1.86c-2.44-.12-4.19-.47-5.36-.93-1.16-.47-1.98-1.4-2.33-2.44-.35-1.16-.58-2.91-.58-5.24v-39.35l36.32,50.41h2.1v-45.4c0-2.33.23-4.07.58-5.24.35-1.16,1.05-1.98,2.1-2.56,1.05-.47,2.56-.81,4.77-.93v-1.86c-1.98.12-4.89.23-8.5.23h0ZM228.04,593.49l10.36-23.05,10.25,23.05h-20.61Z"/>
  <path d="M374.38,566.71c4.77,4.54,7.1,11.29,7.1,20.02,0,5.7-1.16,10.71-3.49,15.02-2.33,4.31-5.7,7.57-10.01,9.9-4.42,2.33-9.66,3.49-15.83,3.49l-5.24-.12c-3.38-.12-5.94-.23-7.45-.23-5.01,0-8.73.12-11.29.23v-1.86c2.21-.12,3.73-.35,4.77-.7s1.63-1.05,2.1-2.1c.35-1.05.58-2.68.58-5.01v-35.97c0-2.33-.23-3.96-.58-5.01-.35-1.05-1.05-1.75-2.1-2.1-1.05-.35-2.56-.58-4.77-.7v-1.86c2.1.23,5.01.23,8.85.23l7.68-.12c4.07-.12,6.87-.23,8.27-.23,9.55.23,16.65,2.56,21.42,7.1h0ZM346.44,562.05c-.93.47-1.63,1.16-1.98,2.33-.35,1.05-.58,2.68-.58,4.89v36.32c0,2.21.23,3.84.58,4.89.35,1.05,1.05,1.86,1.98,2.33.93.47,2.33.58,4.31.58,5.47,0,9.9-.93,13.04-2.91,3.14-1.98,5.36-4.89,6.64-8.73,1.28-3.84,1.86-8.73,1.86-14.79,0-8.85-1.63-15.37-4.89-19.44-3.26-4.07-8.85-6.17-16.76-6.17-1.75.12-3.14.35-4.19.7h0Z"/>
  <path d="M425.61,589.07v16.42c0,2.33.23,3.96.7,5.01.47,1.05,1.28,1.75,2.56,2.1,1.16.35,3.14.58,5.94.7v1.86c-3.14-.23-22.47-.23-25.03,0v-1.86c2.21-.12,3.73-.35,4.77-.7s1.63-1.05,2.1-2.1c.35-1.05.58-2.68.58-5.01v-45.06c0-2.33-.23-3.96-.58-5.01-.35-1.05-1.05-1.75-2.1-2.1s-2.56-.58-4.77-.7v-1.86c2.56.23,6.29.23,11.06.23l9.78-.12c1.16-.12,2.44-.12,3.96-.12,7.1,0,12.57,1.63,16.3,4.89,3.73,3.26,5.59,7.57,5.59,13.04,0,3.38-.7,6.52-2.21,9.55-1.51,3.03-3.96,5.59-7.57,7.68-3.49,2.1-8.27,3.14-14.09,3.14h-6.99ZM428.17,553.21c-.93.47-1.63,1.16-1.98,2.33-.35,1.05-.58,2.68-.58,4.89v26.89h6.05c5.94,0,10.01-1.63,12.34-4.77,2.33-3.14,3.38-7.45,3.38-12.81,0-5.94-1.16-10.25-3.49-13.04-2.33-2.79-6.17-4.19-11.64-4.19-1.75,0-3.14.23-4.07.7Z"/>
  <path d="M605.01,570.55c0,3.14.12,5.59.23,7.45h-2.1c-.35-4.19-.93-7.45-1.75-9.78-.81-2.21-2.1-3.84-3.84-4.89-1.75-1.05-4.31-1.51-7.57-1.51h-5.82v42.61c0,2.56.23,4.42.7,5.59s1.28,1.98,2.56,2.33c1.16.47,3.14.7,5.94.81v1.86c-3.14-.23-23.87-.23-26.78,0v-1.86c2.68-.12,4.66-.35,5.94-.81,1.16-.47,2.1-1.16,2.56-2.33s.7-3.03.7-5.59v-42.61h-5.82c-3.26,0-5.82.47-7.57,1.51-1.75,1.05-3.03,2.68-3.84,4.89-.81,2.21-1.4,5.47-1.75,9.78h-2.1c.23-1.98.23-4.42.23-7.45s-.23-6.75-.58-10.71c5.01.23,13.62.23,25.61.23s20.49-.12,25.61-.23c-.35,3.96-.58,7.57-.58,10.71Z"/>
  <path d="M663.22,561.7c-2.1.12-3.73.47-4.77.93-1.05.47-1.75,1.4-2.1,2.56-.35,1.16-.58,2.91-.58,5.24v45.17h-2.1l-36.32-50.41v39.35c0,2.33.23,4.07.58,5.24.35,1.16,1.16,1.98,2.33,2.44,1.16.47,2.91.81,5.36.93v1.86c-2.21-.23-15.72-.23-17.7,0v-1.86c2.1-.12,3.73-.47,4.77-.93,1.05-.47,1.75-1.4,2.1-2.56.35-1.16.58-2.91.58-5.24v-35.16c0-2.33-.23-3.96-.58-5.01-.35-1.05-1.05-1.75-2.1-2.1-1.05-.35-2.56-.58-4.77-.7v-1.86c1.98.23,4.77.23,8.5.23,3.26,0,6.05-.12,8.38-.23l28.99,40.4v-29.57c0-2.33-.23-4.07-.58-5.24-.35-1.16-1.16-1.98-2.33-2.44-1.16-.47-2.91-.81-5.36-.93v-1.86c2.21.23,5.24.23,9.31.23,3.61,0,6.4-.12,8.5-.23v1.75h-.12Z"/>
  <path d="M711.31,615.14c-3.96-.23-39.58-.23-45.4,0v-1.86c2.21-.12,3.73-.35,4.77-.7s1.63-1.05,2.1-2.1c.35-1.05.58-2.68.58-5.01v-35.97c0-2.33-.23-3.96-.58-5.01-.35-1.05-1.05-1.75-2.1-2.1-1.05-.35-2.56-.58-4.77-.7v-1.86c5.7.23,14.2.23,25.5.23,8.5,0,14.55-.12,18.05-.23-.47,3.61-.58,6.87-.58,9.78,0,2.33.12,4.19.23,5.59h-2.1c-.47-5.01-1.51-8.5-3.14-10.36-1.63-1.98-4.42-2.91-8.15-2.91h-6.64c-2.21,0-3.73.12-4.77.47-1.05.35-1.63,1.05-2.1,2.1-.35,1.05-.58,2.68-.58,5.01v16.88h7.57c1.98,0,3.38-.47,4.42-1.51,1.05-1.05,1.75-2.1,2.1-3.26.35-1.16.7-2.68,1.05-4.54h2.1c-.23,2.1-.23,4.31-.23,6.75v3.49c0,2.33.23,5.7.58,10.13h-2.1c-.35-2.91-1.05-5.24-2.1-6.87-1.05-1.63-2.91-2.44-5.7-2.44h-7.57v17.23c0,2.33.23,3.96.58,5.01.35,1.05,1.05,1.75,2.1,2.1,1.05.35,2.56.47,4.77.47h6.64c3.03,0,5.47-.47,7.22-1.4s3.14-2.56,3.96-4.66c.93-2.1,1.51-5.12,1.86-9.08h2.1c-.23,1.63-.23,3.84-.23,6.52-.12,3.26.12,6.75.58,10.83h0Z"/>
  <path d="M795.25,559.37c1.51.58,3.14,1.4,4.77,2.44,1.28.81,2.33,1.28,3.14,1.28.58,0,.93-.35,1.28-.93s.58-1.63.7-3.03h2.1c-.35,3.14-.47,8.73-.47,16.76h-2.1c-.35-4.31-1.75-8.03-4.19-11.06-2.44-3.03-6.05-4.54-10.71-4.54-3.26,0-5.82.81-7.92,2.56-2.1,1.75-3.14,3.84-3.14,6.4,0,1.86.47,3.49,1.4,4.89.93,1.4,2.1,2.56,3.61,3.61,1.51,1.05,3.61,2.21,6.29,3.73l3.03,1.63c3.73,1.98,6.75,3.84,9.08,5.36,2.33,1.63,4.07,3.38,5.47,5.36s2.1,4.42,2.1,7.1c0,4.89-1.75,8.73-5.36,11.41-3.49,2.68-8.03,4.07-13.27,4.07-2.91,0-5.24-.35-7.1-.93-1.86-.58-3.61-1.4-5.36-2.44-1.28-.81-2.33-1.28-3.14-1.28-.58,0-.93.35-1.28.93s-.58,1.63-.7,3.03h-2.1c.23-3.03.35-9.66.35-20.02h2.1c.47,5.59,1.98,10.13,4.54,13.62,2.56,3.49,6.64,5.24,11.99,5.24,3.03,0,5.7-.81,7.92-2.56,2.21-1.75,3.38-4.31,3.38-7.68,0-1.98-.58-3.73-1.75-5.36-1.16-1.51-2.68-2.91-4.66-4.19-1.98-1.16-4.66-2.68-8.15-4.54-5.01-2.56-8.73-5.12-11.41-7.68-2.56-2.56-3.96-5.82-3.96-9.9,0-4.54,1.63-7.92,5.01-10.48,3.26-2.44,7.33-3.73,12.11-3.73,2.79.12,4.89.35,6.4.93h0Z"/>
  <path d="M406.51,519.44c-1.86,1.28-3.49,1.86-4.89,1.86-1.63,0-2.68-.58-3.26-1.86-.58-1.28-.81-3.26-.81-6.29v-50.06c0-6.75-.47-12.11-1.4-15.95-.93-3.96-2.68-7.22-5.47-9.9-2.91-2.91-6.64-5.01-11.06-6.29-4.42-1.28-9.66-1.86-15.6-1.86s-11.06.58-15.95,1.63c-4.89,1.05-8.96,2.68-12.22,4.54-3.38,2.1-5.94,4.31-7.68,6.75-1.63,2.44-2.44,5.36-2.44,8.73,0,4.07,1.16,7.45,3.49,10.13,2.33,2.68,5.59,4.07,9.9,4.07,4.07,0,7.45-1.28,10.25-3.73,2.79-2.44,4.19-5.7,4.19-9.9,0-3.26-.93-6.17-2.79-8.62-1.86-2.44-4.54-4.31-8.03-5.47,3.03-2.91,7.57-4.42,13.39-4.42,5.01,0,8.73,1.4,11.18,4.31s3.61,6.87,3.61,11.99v14.32c0,3.26-1.51,5.94-4.66,7.8-3.14,1.86-8.03,3.96-14.79,6.29-6.4,2.21-11.64,4.31-15.72,6.29s-7.57,4.77-10.48,8.38c-2.91,3.61-4.31,8.15-4.31,13.74,0,6.64,1.98,11.99,5.82,15.95s9.66,6.05,17.58,6.05c11.88,0,20.84-5.01,27.01-14.9.12,4.54,1.51,8.15,4.19,10.83,2.68,2.68,7.45,4.07,14.2,4.07,7.22,0,13.39-1.86,18.51-5.47l-1.75-3.03h0ZM371,508.73c-3.61,5.01-7.68,7.57-12.46,7.57-3.38,0-6.17-1.16-8.27-3.61-2.1-2.44-3.14-6.05-3.14-11.18,0-5.71,1.28-10.13,3.73-13.27,2.44-3.03,6.05-6.17,10.83-9.2,4.77-2.91,7.92-5.59,9.43-8.03v37.72h-.12Z"/>
  <path d="M767.77,611.18c-1.4,1.4-2.79,1.98-3.96,1.98-.93,0-1.63-.47-2.21-1.28-.58-.93-1.16-2.33-1.63-4.54l-1.98-8.27c-.81-3.26-2.1-5.59-3.96-6.99-1.86-1.4-4.42-2.44-7.68-2.91-.81-.12-1.86-.23-3.14-.35,6.4-.81,11.06-2.68,13.85-5.59,2.79-2.91,4.19-6.17,4.19-9.66,0-4.07-1.86-7.33-5.36-9.9-3.61-2.56-8.85-3.84-15.6-3.84-1.28,0-2.56,0-3.49.12l-9.31.12c-4.89,0-8.5-.12-11.06-.23v1.86c2.21.12,3.73.35,4.77.7,1.05.35,1.63,1.05,2.1,2.1.35,1.05.58,2.68.58,5.01v35.97c0,2.33-.23,3.96-.58,5.01-.35,1.05-1.05,1.75-2.1,2.1s-2.56.58-4.77.7v1.86c2.56-.23,20.37-.23,23.17,0v-1.86c-2.21-.12-3.73-.35-4.77-.7-1.05-.35-1.63-1.05-2.1-2.1-.35-1.05-.58-2.68-.58-5.01v-15.95h5.24c3.26,0,5.7.58,7.45,1.75,1.63,1.16,2.91,3.38,3.73,6.87l2.79,11.41c1.16,4.66,4.31,6.87,9.31,6.87,2.1,0,3.84-.47,5.36-1.28,1.16-.7,2.1-1.51,3.03-2.56l-1.28-1.4h0ZM732.15,587.78v-18.28c0-2.21.12-3.84.47-4.89s.81-1.86,1.63-2.33,2.1-.58,3.73-.58c5.01,0,8.62,1.05,10.83,3.26,2.21,2.1,3.38,5.36,3.38,9.78,0,4.19-.93,7.45-2.91,9.66-1.98,2.33-5.59,3.38-10.94,3.38h-6.17Z"/>
  <path d="M556.23,611.19c-1.4,1.4-2.79,2.1-3.96,2.1-.93,0-1.63-.47-2.21-1.28-.58-.93-1.16-2.33-1.63-4.54l-1.98-8.27c-.81-3.26-2.1-5.59-3.96-6.99s-4.42-2.44-7.68-2.91c-.81-.12-1.86-.23-3.14-.35,6.4-.81,11.06-2.68,13.85-5.59s4.19-6.17,4.19-9.66c0-4.07-1.86-7.33-5.36-9.9-3.61-2.56-8.85-3.84-15.6-3.84-1.28,0-2.56,0-3.49.12l-9.31.12c-4.89,0-8.5-.12-11.06-.23v1.86c2.21.12,3.73.35,4.77.7,1.05.35,1.63,1.05,2.1,2.1.35,1.05.58,2.68.58,5.01v35.97c0,2.33-.23,3.96-.58,5.01-.35,1.05-1.05,1.75-2.1,2.1-1.05.35-7.8,3.03-10.94-5.12l-21.31-48.08h-1.4l-20.14,45.52c-1.05,2.33-2.1,4.31-3.26,5.7-1.16,1.4-2.56,2.33-4.19,2.79v1.86c1.63-.23,14.32-.23,16.18,0v-1.86c-2.44-.23-4.31-.81-5.36-1.63-1.16-.93-1.63-2.1-1.63-3.73,0-1.51.47-3.49,1.51-5.82l3.14-6.87h22.12l4.66,10.36c.81,1.86,1.28,3.26,1.28,4.31,0,1.16-.58,1.98-1.63,2.44-1.05.47-2.68.81-5.01.93v1.86c2.56-.23,41.68-.23,44.47,0v-1.86c-2.21-.12-3.73-.35-4.77-.7-1.05-.35-1.63-1.05-2.1-2.1-.35-1.05-.58-2.68-.58-5.01v-15.95h5.24c3.26,0,5.7.58,7.45,1.75,1.63,1.16,2.91,3.38,3.73,6.87l2.79,11.41c1.16,4.66,4.31,6.87,9.31,6.87,2.1,0,3.84-.47,5.36-1.28,1.16-.7,2.1-1.51,3.03-2.68l-1.4-1.51h0ZM462.86,593.49l10.36-23.05,10.25,23.05h-20.61ZM520.72,587.78v-18.28c0-2.21.12-3.84.47-4.89.35-1.05.81-1.86,1.63-2.33.81-.47,2.1-.58,3.73-.58,5.01,0,8.62,1.05,10.83,3.26,2.21,2.1,3.38,5.36,3.38,9.78,0,4.19-.93,7.45-2.91,9.66-1.98,2.33-5.59,3.38-10.94,3.38h-6.17Z"/>
</svg>