<?xml version="1.0" encoding="UTF-8"?>
<svg id="a" xmlns="http://www.w3.org/2000/svg" viewBox="0 0 1000 1000">
  <defs>
    <style>
      .cls-1 {
        fill: #132334;
      }

      .cls-2 {
        fill: #102636;
      }

      .cls-3 {
        fill: #a1f0f2;
      }

      .cls-4 {
        fill: #fff;
      }
    </style>
  </defs>
  <g>
    <rect class="cls-2" x="82.13" y="38.14" width="835.74" height="923.71"/>
    <rect class="cls-3" x="82.13" y="38.14" width="835.74" height="164.29"/>
  </g>
  <g>
    <path class="cls-1" d="M246.06,91.85v48.11h25.37v9.56h-36.25v-57.67h10.88Z"/>
    <path class="cls-1" d="M315.09,91.85v9.23h-26.53v14.5h24.8v9.06h-24.8v15.65h27.27v9.23h-38.14v-57.67h37.4Z"/>
    <path class="cls-1" d="M358.34,149.52l-2.88-9.64h-22.99l-2.88,9.64h-11.2l18.87-57.67h13.92l18.95,57.67h-11.78ZM344.01,100.5l-8.98,30.48h17.79l-8.82-30.48Z"/>
    <path class="cls-1" d="M393.19,91.85c4.12,0,7.94.54,11.45,1.61,3.51,1.07,6.66,2.71,9.43,4.9,2.77,2.2,4.96,5.12,6.55,8.77,1.59,3.65,2.39,7.9,2.39,12.73,0,5.44-.81,10.16-2.43,14.17-1.62,4.01-3.79,7.1-6.51,9.27-2.72,2.17-5.62,3.75-8.69,4.74-3.08.99-6.34,1.48-9.8,1.48h-20.51v-57.67h18.12ZM393.6,101.16h-7.66v39.05h9.64c10.71,0,16.07-6.76,16.07-20.27,0-5.82-1.46-10.41-4.37-13.76-2.91-3.35-7.47-5.03-13.68-5.03Z"/>
    <path class="cls-1" d="M442.04,91.85v57.67h-10.88v-57.67h10.88Z"/>
    <path class="cls-1" d="M498.81,91.85v57.67h-12.28l-23.73-40.2v40.2h-10.05v-57.67h12.11l23.89,41.27v-41.27h10.05Z"/>
    <path class="cls-1" d="M534.31,90.37c5.38,0,10.22,1.25,14.5,3.75,4.28,2.5,7.55,6.36,9.8,11.58l-9.89,3.71c-2.75-6.59-7.58-9.89-14.5-9.89-5.16,0-9.1,1.88-11.82,5.64-2.72,3.76-4.08,8.99-4.08,15.69s1.35,11.81,4.04,15.49c2.69,3.68,6.67,5.52,11.95,5.52,4.17,0,7.58-1.11,10.22-3.34,2.64-2.22,3.95-5.29,3.95-9.19v-2.55h-13.1v-8.57h24.06v31.31h-10.3v-5.35c-4.01,4.61-9.42,6.92-16.23,6.92-3.24,0-6.32-.54-9.23-1.61-2.91-1.07-5.66-2.73-8.24-4.98-2.58-2.25-4.63-5.4-6.14-9.43-1.51-4.04-2.27-8.72-2.27-14.05s.75-9.83,2.27-13.84c1.51-4.01,3.55-7.21,6.14-9.6,2.58-2.39,5.46-4.19,8.65-5.4,3.18-1.21,6.59-1.81,10.22-1.81Z"/>
    <path class="cls-1" d="M622.87,91.85v9.23h-25.62v15.9h23.73v9.06h-23.73v23.48h-10.88v-57.67h36.5Z"/>
    <path class="cls-1" d="M641.08,91.85v57.67h-10.88v-57.67h10.88Z"/>
    <path class="cls-1" d="M672.96,91.85c7.36,0,12.85,1.63,16.48,4.9,3.62,3.27,5.44,7.46,5.44,12.56,0,8.02-4.04,13.37-12.11,16.06l15.16,24.14h-12.77l-13.26-22.49h-9.23v22.49h-10.88v-57.67h21.17ZM673.79,101h-11.12v17.3h10.88c6.64,0,9.97-2.97,9.97-8.9,0-2.75-.85-4.83-2.55-6.26-1.7-1.43-4.09-2.14-7.17-2.14Z"/>
    <path class="cls-1" d="M762.84,91.85v57.67h-10.63v-46.13l-13.35,46.13h-11.53l-13.76-45.48v45.48h-10.22v-57.67h16.23l13.68,45.81,12.85-45.81h16.72Z"/>
  </g>
  <g>
    <path class="cls-4" d="M140.94,592.55c3.39,0,6.46.82,9.23,2.46,2.76,1.64,4.84,4.29,6.22,7.96l-6.74,1.87c-1.66-4.25-4.56-6.38-8.71-6.38-3.11,0-5.56,1.15-7.36,3.45-1.8,2.3-2.7,5.49-2.7,9.56s.86,7.39,2.57,9.72,4.22,3.5,7.54,3.5c4.7,0,7.86-2.4,9.49-7.21l6.58,2.13c-1.31,3.59-3.42,6.32-6.32,8.19s-6.19,2.8-9.85,2.8c-2.14,0-4.18-.35-6.12-1.04-1.94-.69-3.75-1.75-5.44-3.16-1.69-1.42-3.04-3.4-4.04-5.96-1-2.56-1.5-5.53-1.5-8.92s.47-6.12,1.43-8.63c.95-2.51,2.25-4.49,3.89-5.96,1.64-1.47,3.46-2.57,5.47-3.29,2-.73,4.13-1.09,6.38-1.09Z"/>
    <path class="cls-4" d="M181.48,593.43v30.27h15.97v6.01h-22.81v-36.29h6.84Z"/>
    <path class="cls-4" d="M220.93,593.43v36.29h-6.84v-36.29h6.84Z"/>
    <path class="cls-4" d="M263.9,593.43v5.81h-16.69v9.12h15.6v5.7h-15.6v9.85h17.16v5.81h-24v-36.29h23.54Z"/>
    <path class="cls-4" d="M311.28,593.43v36.29h-7.72l-14.93-25.3v25.3h-6.33v-36.29h7.62l15.03,25.97v-25.97h6.32Z"/>
    <path class="cls-4" d="M355.6,593.43v5.86h-10.37v30.43h-6.89v-30.43h-10.37v-5.86h27.63Z"/>
    <path class="cls-4" d="M409,630.7c-3.14,0-6.11-.58-8.89-1.74-2.78-1.16-5.09-2.88-6.92-5.16l4.61-4.15c3.18,3.46,6.96,5.18,11.35,5.18,2.25,0,4.1-.46,5.57-1.37,1.47-.92,2.2-2.15,2.2-3.71,0-1.66-.63-2.91-1.89-3.76s-3.84-1.6-7.75-2.26c-4.18-.73-7.27-1.94-9.28-3.65-2-1.71-3.01-4.07-3.01-7.08,0-3.18,1.25-5.73,3.76-7.65,2.51-1.92,5.81-2.88,9.93-2.88,6.39,0,11.33,2.18,14.83,6.53l-4.87,3.84c-2.42-3.04-5.72-4.56-9.9-4.56-2.11,0-3.76.4-4.95,1.19s-1.79,1.92-1.79,3.37.6,2.45,1.81,3.19c1.21.74,3.68,1.44,7.41,2.1,4.46.76,7.71,2.02,9.75,3.79,2.04,1.76,3.06,4.23,3.06,7.41,0,3.46-1.32,6.21-3.97,8.27-2.64,2.06-6.33,3.08-11.07,3.08Z"/>
    <path class="cls-4" d="M462.91,629.72l-1.81-6.07h-14.46l-1.81,6.07h-7.05l11.87-36.29h8.76l11.92,36.29h-7.41ZM453.89,598.87l-5.65,19.18h11.2l-5.55-19.18Z"/>
    <path class="cls-4" d="M506.87,593.43v5.86h-10.37v30.43h-6.89v-30.43h-10.37v-5.86h27.63Z"/>
    <path class="cls-4" d="M530.4,593.43v36.29h-6.84v-36.29h6.84Z"/>
    <path class="cls-4" d="M562.85,630.7c-3.14,0-6.11-.58-8.89-1.74-2.78-1.16-5.09-2.88-6.92-5.16l4.61-4.15c3.18,3.46,6.96,5.18,11.35,5.18,2.25,0,4.1-.46,5.57-1.37,1.47-.92,2.2-2.15,2.2-3.71,0-1.66-.63-2.91-1.89-3.76s-3.84-1.6-7.75-2.26c-4.18-.73-7.27-1.94-9.28-3.65-2-1.71-3.01-4.07-3.01-7.08,0-3.18,1.25-5.73,3.76-7.65,2.51-1.92,5.81-2.88,9.93-2.88,6.39,0,11.33,2.18,14.83,6.53l-4.87,3.84c-2.42-3.04-5.72-4.56-9.9-4.56-2.11,0-3.76.4-4.95,1.19s-1.79,1.92-1.79,3.37.6,2.45,1.81,3.19c1.21.74,3.68,1.44,7.41,2.1,4.46.76,7.71,2.02,9.75,3.79,2.04,1.76,3.06,4.23,3.06,7.41,0,3.46-1.32,6.21-3.97,8.27-2.64,2.06-6.33,3.08-11.07,3.08Z"/>
    <path class="cls-4" d="M618.22,593.43v5.81h-16.12v10h14.93v5.7h-14.93v14.77h-6.84v-36.29h22.96Z"/>
    <path class="cls-4" d="M655.49,629.72l-1.81-6.07h-14.46l-1.81,6.07h-7.05l11.87-36.29h8.76l11.92,36.29h-7.41ZM646.47,598.87l-5.65,19.18h11.2l-5.55-19.18Z"/>
    <path class="cls-4" d="M693.28,592.55c3.39,0,6.46.82,9.23,2.46,2.76,1.64,4.84,4.29,6.22,7.96l-6.74,1.87c-1.66-4.25-4.56-6.38-8.71-6.38-3.11,0-5.56,1.15-7.36,3.45-1.8,2.3-2.7,5.49-2.7,9.56s.86,7.39,2.57,9.72,4.22,3.5,7.54,3.5c4.7,0,7.86-2.4,9.49-7.21l6.58,2.13c-1.31,3.59-3.42,6.32-6.32,8.19s-6.19,2.8-9.85,2.8c-2.14,0-4.18-.35-6.12-1.04-1.94-.69-3.75-1.75-5.44-3.16-1.69-1.42-3.04-3.4-4.04-5.96-1-2.56-1.5-5.53-1.5-8.92s.47-6.12,1.43-8.63c.95-2.51,2.25-4.49,3.89-5.96,1.64-1.47,3.46-2.57,5.47-3.29,2-.73,4.13-1.09,6.38-1.09Z"/>
    <path class="cls-4" d="M751.34,593.43v5.86h-10.37v30.43h-6.89v-30.43h-10.37v-5.86h27.63Z"/>
    <path class="cls-4" d="M774.87,593.43v36.29h-6.84v-36.29h6.84Z"/>
    <path class="cls-4" d="M810.28,592.5c2.14,0,4.19.33,6.14.99,1.95.66,3.81,1.69,5.57,3.11s3.17,3.41,4.22,5.99c1.05,2.58,1.58,5.59,1.58,9.05,0,3.25-.49,6.13-1.48,8.63-.98,2.51-2.32,4.5-3.99,5.99-1.68,1.49-3.53,2.6-5.57,3.34-2.04.74-4.2,1.12-6.48,1.12-1.66,0-3.29-.2-4.9-.6-1.61-.4-3.18-1.08-4.72-2.05-1.54-.97-2.89-2.16-4.04-3.58-1.16-1.42-2.09-3.24-2.8-5.47-.71-2.23-1.06-4.72-1.06-7.49,0-3.28.49-6.18,1.48-8.68.98-2.5,2.31-4.49,3.99-5.96,1.68-1.47,3.53-2.57,5.57-3.29,2.04-.73,4.2-1.09,6.48-1.09ZM810.28,598.3c-3.18,0-5.71,1.17-7.59,3.5s-2.83,5.56-2.83,9.67.9,7.46,2.7,9.82c1.8,2.37,4.37,3.55,7.72,3.55,3.11,0,5.62-1.17,7.54-3.52,1.92-2.35,2.88-5.56,2.88-9.64s-.9-7.41-2.7-9.8c-1.8-2.38-4.37-3.58-7.72-3.58Z"/>
    <path class="cls-4" d="M874.66,593.43v36.29h-7.72l-14.93-25.3v25.3h-6.33v-36.29h7.62l15.03,25.97v-25.97h6.32Z"/>
  </g>
  <g>
    <path class="cls-4" d="M210.2,431.14v-2.62c9.88,0,10.47-6.54,10.47-17.3v-65.99c0-10.76-.58-17.3-10.47-17.3v-2.62h33.72v2.62c-9.88,0-10.47,6.54-10.47,17.3v73.11c0,4.51,1.31,6.83,5.67,6.83h11.34c14.97,0,19.33-2.76,27.62-19.77h2.62l-3.49,25.73h-67.01Z"/>
    <path class="cls-4" d="M346.11,412.1l3.78,2.33c-5.67,10.47-15.7,18.46-30.82,18.46-19.77,0-32.56-17.01-32.56-38.37,0-25,16.72-41.28,36.34-41.28,17.44,0,28.78,12.79,26.89,31.98h-50.87c-.15,1.45-.15,2.91-.15,4.36,0,19.77,9.16,34.01,25.15,34.01,9.45,0,17.15-5.67,22.24-11.48ZM299.89,379.1h37.79c.58-12.5-4.94-19.91-15.41-19.91-11.19,0-19.48,7.56-22.38,19.91Z"/>
    <path class="cls-4" d="M401.64,415.59c15.55,0,24.27,6.25,24.27,18.61,0,18.75-20.93,31.83-40.85,31.83-17.44,0-27.62-9.45-27.62-21.51,0-6.11,3.34-10.76,7.41-15.12l1.31-1.45h5.96c-3.05,3.78-4.36,8-4.36,12.94,0,11.19,7.41,17.59,22.24,17.59s26.31-8.72,26.31-19.77c0-8.58-5.23-12.36-16.13-12.36h-28.2c-7.99,0-11.48-4.51-11.48-9.59,0-5.67,3.78-10.17,12.06-15.12-8.14-4.07-13.23-11.92-13.23-22.38,0-15.7,11.63-26.02,27.62-26.02,4.22,0,8.14.73,11.48,2.04l27.62-1.31-2.62,8.43-15.84-1.16c4.07,4.22,6.54,10.32,6.54,17.59,0,15.7-11.34,26.02-27.47,26.02-3.05,0-5.81-.29-8.43-1.02-5.38,3.34-7.12,5.52-7.12,7.85,0,2.18,1.6,3.92,5.23,3.92h25.29ZM370.97,378.96c0,12.79,5.52,19.91,15.84,19.91s15.7-7.12,15.7-19.91-5.52-19.62-15.7-19.62-15.84,6.83-15.84,19.62Z"/>
    <path class="cls-4" d="M492.2,425.76c-2.33,2.33-7.12,7.12-13.66,7.12s-8.29-5.23-9.01-10.03c-5.96,6.4-14.39,10.03-22.24,10.03-9.74,0-17.73-6.54-17.73-16.72,0-11.05,7.56-19.04,25.58-24.27l13.81-3.92v-10.17c0-4.21,0-16.86-13.81-16.86-8.87,0-14.97,5.67-19.04,13.23l-5.09-1.89c2.04-7.27,11.34-19.04,28.34-19.04,14.83,0,21.22,9.74,21.22,23.4v39.39c0,3.63,0,8.43,3.92,8.43,1.31,0,3.05-.73,4.51-1.89l3.2,3.2ZM453.1,424.89c5.96,0,11.92-3.78,15.84-7.27v-24.13l-10.32,3.34c-13.08,4.21-17.3,8.58-17.3,15.84,0,8.14,4.94,12.21,11.77,12.21Z"/>
    <path class="cls-4" d="M497.87,431.14v-2.62c5.96,0,6.4-4.94,6.4-14.25v-77.04c0-9.3-2.47-12.36-7.41-13.66v-2.62l17.44-3.49h1.74v96.81c0,9.3.44,14.25,6.4,14.25v2.62h-24.57Z"/>
    <path class="cls-4" d="M551.36,361.37c32.41,2.91,47.24,15.99,47.24,36.34s-16.57,35.18-39.83,35.18c-8.29,0-18.61-1.74-23.84-3.78l1.89-20.64h2.62c2.04,6.54,7.99,18.32,20.2,18.32,11.05,0,19.48-6.69,19.48-18.9,0-13.37-10.03-22.97-31.98-25l-7.7-.73,6.25-58.58c13.81,2.62,24.27,3.2,31.54,3.2,12.21,0,15.55-1.89,18.32-4.07h2.62c-6.4,20.79-14.83,26.45-30.67,26.45-3.34,0-9.01-.29-15.84-1.16l-1.45,13.23,1.16.15Z"/>
    <path class="cls-4" d="M609.36,378.52c0-32.56,15.12-54.94,41.43-54.94s41.14,21.22,41.14,54.36-15.12,54.94-41.43,54.94-41.14-21.22-41.14-54.36ZM664.01,378.23c0-29.36-2.47-48.55-13.37-48.55s-13.37,18.31-13.37,48.55,2.47,48.55,13.37,48.55,13.37-18.32,13.37-48.55Z"/>
    <path class="cls-4" d="M709.81,378.52c0-32.56,15.12-54.94,41.43-54.94s41.14,21.22,41.14,54.36-15.12,54.94-41.43,54.94-41.14-21.22-41.14-54.36ZM764.46,378.23c0-29.36-2.47-48.55-13.37-48.55s-13.37,18.31-13.37,48.55,2.47,48.55,13.37,48.55,13.37-18.32,13.37-48.55Z"/>
  </g>
  <g>
    <path class="cls-4" d="M398.45,786.84l-10.99,39.26h-80.26v-2.79l19.72-21.81c21.29-23.55,31.58-42.75,31.58-60.89,0-16.05-8.2-24.43-20.07-24.43-11.17,0-18.67,6.98-21.81,20.59h-6.28c1.4-25.47,19.02-39.78,41.35-39.78s37.17,12.91,37.17,32.45c0,23.38-21.46,45.19-49.03,70.67h27.74c11.86,0,21.64-1.22,27.74-13.26h3.14Z"/>
    <path class="cls-4" d="M405.95,762.93c0-39.08,18.15-65.96,49.73-65.96s49.38,25.47,49.38,65.26-18.15,65.96-49.73,65.96-49.38-25.47-49.38-65.26ZM471.56,762.58c0-35.25-2.97-58.28-16.05-58.28s-16.05,21.99-16.05,58.28,2.97,58.28,16.05,58.28,16.05-21.99,16.05-58.28Z"/>
    <path class="cls-4" d="M600.5,786.84l-10.99,39.26h-80.26v-2.79l19.72-21.81c21.29-23.55,31.58-42.75,31.58-60.89,0-16.05-8.2-24.43-20.07-24.43-11.17,0-18.67,6.98-21.81,20.59h-6.28c1.4-25.47,19.02-39.78,41.35-39.78s37.17,12.91,37.17,32.45c0,23.38-21.46,45.19-49.03,70.67h27.74c11.86,0,21.64-1.22,27.74-13.26h3.14Z"/>
    <path class="cls-4" d="M688.79,795.39h-15.53v10.47c0,11.17.52,17.1,7.68,17.1v3.14h-47.46v-3.14c7.15,0,7.68-5.93,7.68-17.1v-10.47h-36.47l-3.84-9.42,59.15-88.29h13.26v81.31h8.38c5.24,0,6.28-1.4,8.38-4.19h3.14l-4.36,20.59ZM617.08,778.99h24.08v-35.94l-24.08,35.94Z"/>
  </g>
  <rect class="cls-4" x="190.88" y="515.34" width="617.65" height="5.08"/>
</svg>