<?xml version="1.0" encoding="UTF-8"?>
<svg id="Layer_2" data-name="Layer 2" xmlns="http://www.w3.org/2000/svg" viewBox="0 0 789.26 818.66">
  <defs>
    <style>
      .cls-1 {
        fill: #121311;
      }
    </style>
  </defs>
  <g id="a">
    <path class="cls-1" d="M424.44,113.29c1.91,3.2,3.32,9.58,6.63,9.58l21.86-25.54h2.39c.45,52,1.41,99.92.93,152.85-.48,1.37-2.39.45-3.8.9-7.59-49.73-9.5-101.29-36.09-143.26-4.25-5.95-9.95-9.58-16.61-10.96-6.16-1.37-11.38,3.2-14.22,8.21l-3.34,10.96.48,349.49c.95,5.48,3.8,10.96,9.49,13.23,4.75.92,10.92.92,15.19-2.27,5.7-4.58,4.98-11.41,4.98-18.26v-152.85c-3.32-4.1-14.01,1.37-13.51-5.02,26.58,0,52.7-1.83,79.27-.47-.95,5.03-9.02.92-11.41,5.48v169.28c-1.41,1.35,1.46,6.38-2.83,4.56l-21.38-33.32h-1.41c-6.18,14.61-17.1,33.32-35.6,35.59-21.35,4.11-42.25-4.1-54.59-22.34-23.26-41.52-23.26-92.64-26.1-142.37-.95-59.32-1.44-119.98,16.61-172.91,7.11-20.99,23.24-47,48.9-50.64,16.15-2.75,27.06,8.21,34.18,20.06"/>
    <path class="cls-1" d="M729.73,98.24c-6.68,1.82-14.27-.92-20.42,2.28v372.77c6.15,3.63,14.22.45,20.42.45,18.51-11.86,24.21-33.31,30.84-52.02,10.47-32.39,16.61-66.61,19.97-101.75.92-.9,2.34-.43,3.31-.43,2.39,52,.93,108.91,1.41,159.54-47,1.38-104.44.47-146.67,0v-2.59c5.2-1.38,11.37,1.8,15.16-2.75-.45-123.65.48-246.84,0-373.22-4.74-2.28-11.85-.47-16.61-1.83-.93-3.2,3.35-2.28,5.7-2.73,28.49-.9,57.93,0,86.91-.47v2.75h-.02Z"/>
    <path class="cls-1" d="M94.95,95.96c1.89.9,1.43,3.2.95,4.1-7.11.47-17.33-1.82-23.01,2.28v371.4c5.68,3.65,11.15,0,17.79,1.37,10.92-4.1,15.2-15.51,20.42-24.18,18.51-40.15,26.6-84.42,32.3-129.58h3.79c.48,52.02.95,106.75-.95,157.87L0,478.75c-.11-6.71,13.29-2.47,17.56-6.13V100.52l-14.24-.92v-3.65h91.63Z"/>
    <path class="cls-1" d="M307.89,243.34h-4.05c-7.11-45.18-13.76-90.35-34.16-130.04-8.07-11.41-23.29-14.15-35.62-11.86l-2.25,2.28v176.58c0,.9-.12,2.28,1.3,3.18,11.4-1.82,18.03-13.23,22.31-21.91,7.61-22.34,12.83-45.62,14.72-70.25.95-.92,1.89-.47,3.32-.47.48,62.51.48,126.84,0,189.82-.95,1.35-2.84,1.35-3.79,1.35-2.39-10.05-2.86-20.99-4.29-31.49-6.15-21.89-5.71-50.64-30.87-61.58h-2.72v182.94c0,1.83-.12,3.66,1.77,3.66,24.7,3.2,34.67-23.73,43.21-39.24,13.29-35.14,20.4-72.54,25.64-110.42,1.41-.92,3.07-1.37,4.5-.47v152.42l-1.65,1.37-146.24-.47v-3.2c4.75-1.83,13.52,1.35,17.31-2.73V101.43c-4.74-3.2-10.2,0-14.46-2.75v-1.35c46.99-.92,97.57-.92,145.99,0v146h.03Z"/>
    <path class="cls-1" d="M620.51,474.66c-6.63-35.59-38.45-370.95-38.45-370.95l-1.41-6.85c-9.5-.9-20.43-.9-29.91,0l-5.7,35.59-46.07,314.84c-1.91,9.58-3.8,20.98-14.72,26.01-2.39,3.2-11.88,0-8.09,5.93l48.45-.47c2.36-5.03-4.27-4.1-6.65-5.03-9.97-4.1-12.81-13.66-13.77-22.79,2.87-17.79,3.34-36.51,8.07-53.85l41.32-.45,2.38,1.82c2.34,25.57,5.22,48.83,6.15,74.84-4.25,2.72-9.5,1.8-14.72,2.72.5.92-.43,2.28.5,2.75l82.12-.47v-3.2l-9.5-.43h0ZM552.61,392.52c-13.26-.47-27.05.92-39.86-1.35l27.51-186.64,14.72,186.17-2.38,1.82h.01Z"/>
    <path class="cls-1" d="M227.88,503.87c-6.65,31.46-36.07,66.12-71.22,71.15-35.59,5.5-74.52,2.3-110.14-1.35l-1.41,3.65-5.23,46.09.95.9c45.59-28.76,119.17-30.11,164.75-.9,25.17,17.79,37.51,43.8,32.76,73.9-3.8,28.76-31.82,55.2-59.83,62.51-52.7,15.08-117.25,10.06-159.05-23.28-13.29-10.48-17.1-26.44-13.76-42.42,3.32-13.7,16.61-26.91,30.37-30.57,13.31-3.65,28.01-1.35,38.96,5.93,12.33,9.58,19.44,21.91,18.97,36.52-.48,15.5-10.92,30.09-25.64,37.39-5.23,2.28-11.4,2.73-16.61,5.02,23.73,12.33,53.18,14.15,82.14,12.78v-151.46c-35.62-4.13-67.92,6.38-95.93,24.15l-5.68-3.18c3.79-42.89,9.49-86.69,14.24-129.58l1.43-.45c56.49,8.66,123.44,16.89,179.93,3.21"/>
    <path class="cls-1" d="M762.95,548.58c-20.9-26.47-49.38-42.92-82.12-46.12-47-4.55-87.34,14.61-114.9,51.57-29.44,36.51-31.82,95.39-13.31,137.36,17.1,40.59,60.79,74.36,106.38,76.64,50.77,1.83,95.43-31.02,115.85-73.44,22.3-44.28,18.99-106.78-11.89-146M683.65,758.45c-12.33,3.66-26.1,3.66-38.45,0v-247.29c11.4-2.73,26.6-4.56,38.45-.47v247.76h0Z"/>
    <path class="cls-1" d="M496.16,568.64c-9.04-19.16-26.12-38.8-46.09-49.73-35.12-20.99-89.72-22.36-124.38.93-44.64,28.74-66.46,73.88-62.67,125.45,3.32,50.2,38.46,100.39,89.25,117.26,47.95,14.6,94.95-4.57,126.28-40.59,33.71-40.17,43.21-106.78,17.59-153.32M405.44,757.98c-11.86,3.18-25.62,3.18-37.98,0v-246.37c11.4-3.18,27.06-3.18,37.98,0v246.37Z"/>
    <path class="cls-1" d="M337.02,56.53c-.53,2.52-1.72,7.83-1.61,10.34.22,4.7,4.43,3.82,8.76,3.82l-.65,3.4c-5.16-.11-10.4-.31-15.56-.4-5.12.09-10.36.29-15.5.4l.65-3.4c8.03.09,8.6-1.21,10.22-9.53l9.32-48.83h-1.27c-10.48,0-15.29.99-18.71,13.14h-3.62l3.62-17.75c8.94.11,17.98.29,26.91.4,8.21-.12,16.33-.31,24.74-.42.02,2.7-.03,5.51,0,8.23.26,3.51.59,6.93.85,10.42h-3.63c-1.66-10.82-4.69-14.02-14.61-14.02h-1.46l-8.43,44.21h-.02Z"/>
    <path class="cls-1" d="M380.66,23.12c.56-2.67,2.75-12.13,2.75-14.91,0-3.63-4.95-3.63-7.24-3.63l.76-3.2,19.75-1.38-10.26,43.93.22.79c3.04-7.05,11.43-15.05,19.05-15.05,6.46,0,9.01,4.01,9.01,7.17s-.56,6.69-1.51,9.8l-3.07,10.78c-.45,1.49-1.71,5.76-1.71,7.14,0,1.27.76,2.87,1.91,2.87,3.34,0,6.3-7.03,7.75-9.91l1.8.62c-2.56,6.96-8.21,16.33-15.56,16.33-3.73,0-6.97-3.31-6.97-7.58,0-3.31,1.16-7.36,2.11-10.56l2.95-10.67c.57-2.05,1.72-5.99,1.72-8.12s-1.06-3.51-3.06-3.51c-3.53,0-8.73,5.68-10.45,8.66-2.78,4.92-6.06,9.97-7.67,15.51l-4.1,14.3h-10.12l11.94-49.41v.03Z"/>
    <path class="cls-1" d="M464.79,58.9c-6.21,10.29-12.11,14.74-23.74,14.74-8.68,0-13.73-6.09-13.73-15.9,0-15.9,12.56-28.34,27.34-28.34,4.95,0,11.94.51,11.94,7.25,0,10.75-18.77,18.45-27.84,21.02-.3,2.02-.9,5.48-.9,7.5,0,4.16,3.91,5.16,6.41,5.16,9.3,0,15.56-8.9,18.74-13.17l1.77,1.74h.01ZM458.15,35.81c0-3.21-2.1-4.08-5.92-3.51-7.45,1.15-11.57,15.22-12.9,21.1,6.37-2.13,18.82-9.15,18.82-17.59"/>
    <rect class="cls-1" x="1.78" y="48.38" width="281.9" height="5.12"/>
    <rect class="cls-1" x="490.19" y="48.38" width="294.32" height="5.12"/>
    <rect class="cls-1" x="1.88" y="813.55" width="781.79" height="5.11"/>
  </g>
</svg>