<?xml version="1.0" encoding="UTF-8"?>
<svg id="Layer_2" data-name="Layer 2" xmlns="http://www.w3.org/2000/svg" viewBox="0 0 912.6 598">
  <defs>
    <style>
      .cls-1 {
        fill-rule: evenodd;
      }
    </style>
  </defs>
  <g id="a">
    <path class="cls-1" d="M444.65,505v3.48h.11c5.03.14,6.8.75,6.8,3.76,0,1.7-.56,5-1.12,7.49,0,0-7.57,28.57-8.57,32.23-.25-.78-15.61-46.96-15.61-46.96h-8.55s-14.84,46.18-15.09,46.96c-.21-.78-9.94-34.43-9.94-34.43-.6-1.7-.86-3.9-.86-5.15,0-1.77.82-3.8,7.38-3.9h.12v-3.48h-30.25v3.44h.12c8.7.53,9.71,2.7,12.32,11.04,1.74,5.56,7.05,22.38,15.93,50.47v.11h6.96s15.91-48.98,16.15-49.66c.21.67,17.4,49.66,17.4,49.66h6.71l14.25-51.01c2.2-7.77,3.98-10.04,11.57-10.61h.11v-3.44h-25.92"/>
    <path class="cls-1" d="M295.22,548.87c-2.27,10.58-4.27,14.62-15.95,14.62h-9.19c-8.13,0-8.79-.67-8.79-8.31v-64.64c0-10.44,4.51-10.93,11.86-10.93h.11v-3.94h-37.2v3.94h.13c7.32,0,11.8.71,11.8,10.93v64.64c0,10.19-4.47,10.93-11.8,10.93h-.13v3.94h62.65l1.02-21.26h-4.47l-.02.07"/>
    <path class="cls-1" d="M368.78,566.09s-1.88.67-3.32.64c-4.15-.07-5.62-1.6-5.62-5.79v-33.68c0-15.4-7.55-22.26-24.49-22.26-9.75,0-24.12,4.47-24.12,13.88,0,3.9,3.05,6.71,7.28,6.71,2.44,0,7.05-1.6,7.05-7.67,0-3.55,1.14-7.24,9.63-7.24,11.59.11,12.67,10.01,12.67,22.97v.67c-12.57.71-38.52,2.24-38.52,21.19,0,9.05,7.36,15.9,17.16,15.9,9.18,0,16.95-3.41,21.47-9.37.39,6.39,3.83,9.37,10.86,9.37,5.86,0,10-1.28,10.05-1.31l.07-.04v-4.05l-.15.07M347.85,539.89v7.45c0,8.16-6.92,17.25-16.22,17.25-4.24,0-8.84-4.29-8.84-11.29,0-11.43,17.45-13.2,25.06-13.42"/>
    <path class="cls-1" d="M767.77,505.28c-18.85,0-28.01,10.29-28.01,31.31,0,22.75,11.5,34.82,33.29,34.82,10.47,0,16.54-2.56,16.58-2.59l.07-.04v-5.64l-.14.07s-4.58,2.02-9.87,2.02c-21.4,0-27.4-21.76-27.58-33.36h39.36v-3.51c0-17.04-12.21-23.07-23.71-23.07M766.03,510.93c10.79,0,12.17,10.68,12.28,15.37h-26.19c.32-5.43,4.65-15.37,13.91-15.37"/>
    <path class="cls-1" d="M543.02,519.38c-2.77-1.67-9.09-4.76-9.16-4.76-9.62-4.79-18.78-9.34-18.78-18.39,0-8.38,5.82-14.69,15.33-14.69,16.68,0,21.47,11.18,22.22,15.97v.11h4.54l-2.38-20.2-.11-.04c-.07,0-9.65-2.41-21.69-2.45-11.11,0-19.84,2.8-25.2,8.13-4.05,4.08-4.79,9.48-4.79,16.08,0,8.66,2.52,14.09,9.09,19.2,4.15,3.3,9.33,5.86,14.34,8.52,10.75,5.54,20.91,10.79,20.91,20.73s-8.13,17.11-19.24,17.11c-14.45,0-20.73-8.66-21.72-15.97v-.14h-4.51l.99,20.8h.11c.11.04,13.35,2.7,23.99,2.7,21.19,0,34.39-10.22,34.39-26.69,0-13.95-7.95-19.81-18.35-26.02"/>
    <path class="cls-1" d="M599.84,505c-17.5,0-28.4,12.74-28.4,33.19s10.9,33.22,28.4,33.22,28.43-12.71,28.43-33.22-10.9-33.19-28.43-33.19M599.84,565.73c-13.91,0-15.4-19.24-15.4-27.54s1.49-27.51,15.4-27.51,15.44,19.27,15.44,27.51-1.49,27.54-15.44,27.54"/>
    <path class="cls-1" d="M666.96,510.68c6.18,0,8.09,2.91,8.66,5.4,1.06,4.51,2.2,9.12,7.74,9.12,4.01,0,6.81-2.88,6.81-6.96,0-9.69-11.11-13.24-21.47-13.24-24.21,0-29.28,17.07-29.28,31.34,0,22.89,11.86,35.07,34.36,35.07,9.34,0,14.66-2.34,14.69-2.34l.07-.04v-5.04l-.18.04c-.07.04-4.26,1.21-7.81,1.21-18.81,0-28.96-17.11-28.96-33.26,0-13.35,5.75-21.3,15.37-21.3"/>
    <path class="cls-1" d="M721.45,557.11v-52.18h-.14l-21.44,3.48v3.3h.11c3.76.14,9.97.46,9.97,8.34v37.06c0,7.95-3.66,9.51-9.97,9.51h-.11v3.44h31.7v-3.44h-.14c-6.32,0-9.97-1.56-9.97-9.51"/>
    <path class="cls-1" d="M715.31,493.68c4.54,0,6.81-3.62,6.81-8.31s-4.93-8.34-9.48-8.34-6.85,3.69-6.85,8.34,4.93,8.31,9.51,8.31"/>
    <path class="cls-1" d="M886.35,506.35v3.48h.11c3.48-.04,5.4.35,6.32,1.31.6.53.85,1.35.85,2.63,0,1.38-1.63,5.71-3.05,9.58-.04.04-10.36,27.58-11.46,30.49-.25-.6-19.38-47.49-19.38-47.49h-37.84v-20.34h-5.43v.14c0,13.84-5.64,20.2-17.57,20.2h-.14v6.25h10.79v38.01c0,15.44,1.06,20.8,21.72,20.8,2.91,0,6.78-.6,6.81-.6l.11-.04-.04-5.75-.14.04s-3.19.67-5.64.71c-6.74.25-10.47-1.74-10.47-11.32v-41.85h18.71c7.6,0,10.08,3.05,14.13,12.57,0,0,18.67,44.37,18.67,44.4-.04,0-3.44,8.23-3.44,8.23l-.75,1.99c-3.69,9.48-13.77,13.27-27.01,10.04l-.18-.07v7.88l.53.07c26.62,2.2,30.88-8.31,36.7-22.86.04,0,20.3-53.24,20.52-53.81,2.77-7.28,5.61-11.22,12.71-11.22h.11v-3.48h-26.23"/>
    <path class="cls-1" d="M197.66,511.92c-5.24-5.47-12.59-6.64-17.78-6.64-18.87,0-28.03,10.29-28.03,31.31,0,22.75,11.5,34.82,33.32,34.82,10.44,0,16.5-2.56,16.59-2.59l.06-.04v-5.64l-.2.07s-4.56,2.02-9.83,2.02c-21.42,0-27.4-21.76-27.56-33.36h39.33v-.11c.07-.75.07-1.42.07-2.13,0-7.56-2.01-13.52-5.96-17.71M178.11,510.93c10.83,0,12.19,10.68,12.29,15.37h-26.16c.28-5.43,4.6-15.37,13.87-15.37"/>
    <path class="cls-1" d="M135.12,557.18v-30.84c0-12.96-2.93-21.05-17.38-21.05-12.36,0-20.3,10.44-22.98,16.33v-45.93H.99l-.99,19.56h4.44v-.11c1.31-7.67,3.3-13.06,16.72-13.06h11.9v73.62c0,9.8-4.84,10.51-12.86,10.51h-.13v3.87h39.17v-3.87h-.14c-7.97,0-12.88-.5-12.88-10.51v-73.62h27.19c3.62,0,9.67,1.14,9.67,8.55v66.55c0,7.92-3.58,9.44-10.13,9.44h-.13v3.44h32.23v-3.44h-.11c-6.61,0-10.16-1.53-10.16-9.44v-16.54c0-12.78,11.44-27.69,18.89-27.69,8.38,0,9.76,5,9.76,16.36v27.86c0,8.7-4.8,9.44-10.15,9.44h-.12v3.44h32.24v-3.44h-.12c-6.42,0-10.15-1.56-10.15-9.44"/>
    <path class="cls-1" d="M255.43,80.62s3.15,14.75,13.1,33.92c6.06,11.68,11.35,19.81,13.06,22.33-8.23,9.52-10.59,15.88-11.02,17.19-.2.39-.27.88-.13,1.35.28.92,1.24,1.46,2.2,1.16.27-.09.52-.21.71-.41.57-.75,1.44-1.21,2.44-1.21,1.67,0,3.05,1.37,3.05,3.05,0,.7-.24,1.34-.64,1.85-4.96,8.2-6.18,13.41-6.39,14.59-.18.39-.18.89.01,1.31.41.89,1.46,1.28,2.34.89.13-.05.25-.11.35-.22.59-.63,1.44-1.06,2.38-1.06,1.74,0,2.79,2.04,2.79,3.77,0,.66-.2,1.27-.53,1.74-3.36,6.27-3.9,9.58-4.08,10.58-.17.45-.17.89.04,1.34.37.89,1.46,1.28,2.32.89.18-.07.38-.2.52-.31.6-.89,1.42-1.42,2.31-1.4,1.81.07,3.17,2.45,3.09,5.32-.02.54-.09,1.08-.21,1.57-1.63,5.5-1.8,8.83-1.8,9.71-.08.44,0,.9.27,1.35.53.76,1.63.97,2.45.44.21-.14.28-.4.43-.64.46-.96,1.17-1.56,1.96-1.56.63,0,1.21.38,1.62.98.35.51.53,1.01.67,1.53,7.31,19.92-20.73,35.92-42.91,18.22,14.99-2.99,21.79-7.52,23.04-8.41.39-.22.72-.57.9-1.06.32-.93-.19-1.99-1.14-2.32-.57-.2-1.15-.11-1.64.21-7.03,3.31-16.86,5.23-26.64,6.33-3.94-4.48-7.57-10.27-10.58-17.53,18.69,1.98,27.96-1.15,29.56-1.77.46-.07.89-.35,1.17-.76.54-.85.33-1.98-.52-2.52-.51-.34-1.08-.45-1.61-.24-8.61,1.55-20.22.45-30.99-1.35-1.81-5.68-3.3-12.08-4.37-19.34-.18-1.25-.34-2.53-.49-3.87,19.72,11.15,31.24,11.63,33.1,11.63.46.07.93,0,1.35-.28.85-.6,1.04-1.77.44-2.59-.33-.49-.85-.75-1.42-.78-10.4-2.01-23.44-9.07-34.18-15.9-.58-9.34-.32-19.45,1.21-29.53,16.97,24.1,30.19,30.11,32.16,30.92.39.25.88.32,1.38.21.99-.21,1.6-1.23,1.35-2.2-.14-.57-.51-1.03-1.03-1.28-11.72-7.56-24.36-25.06-32.1-36.83,2.2-9.45,5.62-18.67,10.66-27.05,11.81,32.43,25.02,42.55,26.87,43.84.32.32.78.53,1.3.53,1.01,0,1.81-.83,1.81-1.82,0-.63-.25-1.14-.73-1.51-10.94-11.29-20.27-35.15-24.67-47.85,4.22-5.64,9.34-10.72,15.4-15.12"/>
    <path class="cls-1" d="M293.8,419.14c17.52-11.57,65.3-37.3,130.87-44.01,18.52,9.44,32.13,16.68,32.13,16.68,10.75-5.75,21.58-11.39,32.48-16.9,66.84,6.28,115.57,32.51,133.35,44.23h-328.83"/>
    <path class="cls-1" d="M504.11,61.12v5h-14.62v-4.86c2.17.85,4.58,1.33,7.13,1.33,2.73,0,5.29-.53,7.49-1.47"/>
    <path class="cls-1" d="M498.58,3.62l.71,56.7c-.89.11-1.74.2-2.66.2s-1.77-.09-2.63-.2l.67-56.7c.18-2.06,1.46-3.62,1.95-3.62.53,0,1.81,1.56,1.95,3.62"/>
    <path class="cls-1" d="M456.12,26.24c5.54,0,8.31-1.53,8.31-1.53,0,0,0,5.84,1.99,8.23,0,0-3.05,1.48-6.18.35,0,0-.99,1.03-.82,3.3,0,0,3.98,2.22,7.92,2.51,0,0-4.26,10.66-11.18,10.7-6.98-.04-11.2-10.7-11.2-10.7,3.94-.28,7.9-2.51,7.9-2.51.18-2.27-.79-3.3-.79-3.3-3.12,1.12-6.18-.35-6.18-.35,1.95-2.39,1.95-8.23,1.95-8.23,0,0,2.79,1.53,8.28,1.53"/>
    <path class="cls-1" d="M447.94,20.63s1.74-6.68,5.67-6.68c1.92,0,1.21.67,2.56.58,1.35.09.64-.58,2.52-.58,3.98,0,5.71,6.68,5.71,6.68,0,0-2.95-.75-8.2-.75s-8.26.75-8.26.75"/>
    <path class="cls-1" d="M492.75,142.06c7.84,10.61-6.99,11.71-10.29,9.51-4.69-3.14-6.67-8.7-12.35-12.08,2.2-1.56,7.42-2.95,10.75-3.11,2.13-.11,3.58.32,3.58.32,4.9-5.18,2.98-39.79,2.52-44.65-.5-4.9,0-16.94,0-16.94,0,0,4.05-1.27,6.28.15,3.44,2.66-.35,9.41,3.9,9.41,3.44,0,1.28-5.47,2.66-8.16.75-1.42,1.42-1.56,1.56-2.82.18-1.23-1.24-4.99-4.69-4.99-10.04,1.87-16.29-2.48-19.63-6.46-3.9-4.69-3.9-15.97-4.37-18.03-.46-2.02-.46-3.76-2.66-2.98-2.2.78-5.5,17.24-13.24,17.24s-11.37-12.49-12.01-15.04c-.65-2.5-1.89-2.98-1.89-2.98,0,0-2.06.63-4.22,2.52-2.19,1.87-7.37,8.63-12.07,9.55-5.53,1.1-16.07-3.62-17.92-4.45-1.92-.78-6.32-.39-8.41.15-1.3,1.09-.67,3.8,1.15,5.1,1.63,1.17,2.47,3.09,2.86,4.37.26.78.43.76.69.04.49-1.21,1.49-2.9,3.44-3.01,2.73-.12,4.93,1.9,8.15,2.66,3.83.96,9.76,3.98,15.38.8,2.73-1.55,9.39-4.54,9.39-4.54.19,2.92,1.67,4.76,2.14,6.79.49,2.06.46,4.29.46,4.29,0,0-3.87,3.76-6.39,10.61-2.84,7.84-5.16,51.54-5.61,55.62-.47,4.08-.47,5.06-.97,7.02,19.29-9.3,25.37,5.22,25.37,8.63,0,5.22-11.74,6.76-15.32,1.75-14.26-19.95-24.37-11.25-26.98-7.82,10.44,5,4.61,13.36-2.05,11.58-10.02-2.7-8.35-9.58-8.42-10.34-4.4,2.2-5.84,16.04,8.1,15.98,43.39-5.51,79.48-1.49,95.35.96,1.03.04,9.19,2.08,10.97-6.6,1.67-8.07-12.39-17.94-25.24-10.05M444.14,126.86s-.67-10.22-1.1-14.6c-.78-8.47-.6-27.74,2.84-32.3,0,0,5.02,1.11,11.91-1.9,5.61-2.43,8.31-4.69,12.1-6.57,0,0-3.48,3.04-5.82,10.97-1.7,5.82-13.01,37.94-19.94,44.4M469.26,131.87s4.22-7.84,5.32-18.82c.92-9.37,2.02-30.06,6.89-33.39,0,0-1.67,9.82-.78,18.95,1.1,11.29-2.8,28.72-11.43,33.26"/>
    <path class="cls-1" d="M407.54,243.22c-.24-.64-.56-.96-.8-.93-.43,0-.57.32-.72,1.01l-.75,3.34c-.18.75-.64,1.16-1.34,1.2l-.92.05c-.57.06-1.24-.22-.79-1.68l2.24-7.09c.26-.93.93-1.31,1.47-1.35l.92-.05c.8-.06,1.35.36,1.74,1.21l3.04,6.97c.62,1.48-.45,1.59-1.16,1.66-1.35.07-1.56-.24-2.06-1.69l-.86-2.63"/>
    <path class="cls-1" d="M410.43,238.48c.09,1.53,1.16,2.66,2.38,2.59,1.21-.06,2.15-1.34,2.08-2.84-.07-1.51-1.14-2.69-2.38-2.61-1.21.07-2.15,1.34-2.08,2.86"/>
    <path class="cls-1" d="M403.97,233.46c.09,1.53,1.16,2.69,2.38,2.63,1.24-.07,2.19-1.35,2.09-2.84-.07-1.53-1.15-2.71-2.35-2.66-1.24.07-2.19,1.35-2.12,2.88"/>
    <path class="cls-1" d="M398.03,239.1c.08,1.53,1.14,2.7,2.38,2.65,1.22-.07,2.17-1.35,2.09-2.88-.09-1.53-1.16-2.7-2.4-2.65-1.21.07-2.13,1.35-2.07,2.88"/>
    <path class="cls-1" d="M407.52,328.7c-.18-.67-.53-.96-.76-.96-.41,0-.59.32-.77,1.03l-.79,3.3c-.18.75-.64,1.17-1.37,1.21h-.86c-.6.04-1.28-.28-.8-1.74l2.38-7.03c.25-.92.95-1.28,1.48-1.31l.92-.04c.78-.04,1.35.39,1.72,1.28l2.91,6.99c.59,1.46-.46,1.6-1.15,1.63-1.38.04-1.59-.25-2.06-1.67l-.84-2.7"/>
    <path class="cls-1" d="M410.53,323.98c.04,1.53,1.08,2.73,2.31,2.7,1.22-.07,2.2-1.31,2.14-2.84-.05-1.53-1.1-2.69-2.32-2.64-1.24.04-2.19,1.33-2.13,2.78"/>
    <path class="cls-1" d="M404.14,318.88c.05,1.53,1.11,2.71,2.32,2.67,1.27-.05,2.2-1.31,2.13-2.8-.04-1.5-1.06-2.73-2.31-2.67-1.24.01-2.18,1.29-2.14,2.8"/>
    <path class="cls-1" d="M398.11,324.44c.06,1.53,1.09,2.7,2.31,2.66,1.24-.07,2.2-1.31,2.15-2.84-.06-1.53-1.1-2.71-2.37-2.67-1.18.04-2.17,1.33-2.09,2.85"/>
    <path class="cls-1" d="M504.61,245.87c-.46,1.46-.71,1.72-2.06,1.67-.71-.06-1.77-.17-1.14-1.63l3.02-6.98c.39-.86.92-1.25,1.7-1.22l.96.05c.5.02,1.21.39,1.49,1.37l2.2,7.04c.46,1.48-.25,1.74-.78,1.7l-.92-.05c-.71-.06-1.14-.43-1.35-1.17l-.71-3.36c-.18-.69-.35-1.01-.75-1.01-.21-.04-.57.3-.78.93l-.89,2.65"/>
    <path class="cls-1" d="M502.59,238.48c-.07,1.53-1.14,2.66-2.38,2.59-1.21-.06-2.17-1.34-2.09-2.84.11-1.51,1.17-2.69,2.38-2.61,1.24.07,2.17,1.34,2.09,2.86"/>
    <path class="cls-1" d="M509.05,233.46c-.07,1.53-1.14,2.69-2.38,2.63-1.24-.07-2.17-1.35-2.09-2.84.07-1.53,1.14-2.71,2.38-2.66,1.24.07,2.17,1.35,2.09,2.88"/>
    <path class="cls-1" d="M514.97,239.1c-.11,1.53-1.14,2.7-2.38,2.65-1.24-.07-2.13-1.35-2.06-2.88s1.14-2.7,2.38-2.65c1.21.07,2.13,1.35,2.06,2.88"/>
    <path class="cls-1" d="M504.68,331.4c-.43,1.46-.71,1.7-2.06,1.67-.71-.04-1.74-.18-1.17-1.6l2.95-7.03c.32-.89.89-1.28,1.67-1.28l.96.04c.5.04,1.21.39,1.46,1.31l2.34,7.03c.5,1.49-.14,1.74-.75,1.74l-.89-.04c-.71,0-1.17-.39-1.38-1.17l-.78-3.3c-.18-.71-.32-1.03-.75-1.03-.25,0-.6.28-.78.96l-.82,2.7"/>
    <path class="cls-1" d="M502.52,323.98c-.04,1.53-1.1,2.73-2.34,2.7-1.21-.07-2.17-1.31-2.13-2.84.07-1.53,1.1-2.69,2.34-2.64,1.21.04,2.17,1.33,2.13,2.78"/>
    <path class="cls-1" d="M508.87,318.88c-.04,1.53-1.1,2.71-2.31,2.67-1.24-.05-2.17-1.31-2.13-2.8.04-1.5,1.06-2.73,2.31-2.67,1.24.01,2.2,1.29,2.13,2.8"/>
    <path class="cls-1" d="M514.9,324.44c-.04,1.53-1.06,2.7-2.31,2.66-1.24-.07-2.2-1.31-2.17-2.84.07-1.53,1.1-2.71,2.34-2.67,1.24.04,2.2,1.33,2.13,2.85"/>
    <path class="cls-1" d="M294.12,346.66c9.94.82,14.59,5.47,14.59,5.47-3.69,1.17-7.54,4.44-7.54,4.44,11.23.71,16.41,7.17,16.41,7.17-8.07-.64-23.92.14-27.15.35-.14-6.89,1.37-12.14,3.69-17.43"/>
    <path class="cls-1" d="M402.82,87.15l-10.89-18.15-10.87,18.15c0,.2-.02.39-.02.6,0,6.02,4.9,10.86,10.9,10.86s10.9-4.84,10.9-10.86c0-.21-.01-.4-.01-.6M384.01,86.72l7.93-13.24,7.92,13.24h-15.85Z"/>
    <path class="cls-1" d="M428.34,87.15l-10.89-18.15-10.84,18.15c-.02.2-.04.39-.04.6,0,6.02,4.87,10.86,10.87,10.86s10.92-4.84,10.92-10.86c0-.21-.02-.4-.04-.6M409.57,86.72l7.89-13.24,7.95,13.24h-15.84Z"/>
    <path class="cls-1" d="M422.03,63.42h-12.88c-.85-1.66-2.52-2.83-4.51-2.83s-3.68,1.17-4.54,2.83h-13.05c-.57,0-1.04.58-1.04,1.28v2.13c0,.67.47,1.24,1.04,1.24h13.05c.83,1.64,2.56,2.84,4.54,2.84s3.67-1.2,4.52-2.84h12.87c.58,0,1.04-.57,1.04-1.24v-2.13c0-.7-.46-1.28-1.04-1.28M404.61,68.04c-1.17,0-2.21-.98-2.21-2.3,0-1.21,1.04-2.27,2.21-2.27,1.31,0,2.33,1.06,2.33,2.27,0,1.31-1.02,2.3-2.33,2.3"/>
    <path class="cls-1" d="M612.55,296.49c-11,4.64-16.9,11.81-17.71,22.72-2.2-.08-8.09.31-11.86,5.62-4.05,5.68-3.16,14.73,3.3,20.59,0,0-14.55,13.81-21.33,24.78-.75,1.28-2.48,3.62-6.78,3.62h-28.43s2.45-5.4,5.4-11.22c4.97-9.76,10.36-6.39,13.63-5.29,5.93,2.02,16.47-5.4,19.66-15.12,2.17-6.53-10.65-17.07-9.05-35.4,1.42-16.06,16.04-25,31.34-20.87,8.52,2.31,14.27,5.17,21.83,10.58"/>
    <path class="cls-1" d="M324.11,278.59c12.2-2.8,20.61,3.48,22.72,10.26,4.14,13.36-8.5,35.94-11.76,40.31-3.22,4.37-3.18,8.31-2.52,10.26,1.38,4.12,21.79,16.11,26.51,18.74,12.64,8.41,12.81,15.65,12.81,15.65h-17.06s-1.49-3.12-1.49-6.67c0-2.34-2.57-2.41-4.66-2.09-2.84.43-3.11-.25-3.11-.25-8.06-7.7-29.58-23.43-29.58-23.43,0,0-.45-2.77,2.28-7.13,2.79-4.37,5-4.9,4.4-10.86-1.18-11.17-10.75-10.64-13.52-10.23,2.12-8.81,1.62-17.62-4.97-27.15.52-.18,5.84-4.16,19.95-7.39"/>
    <path class="cls-1" d="M688.26,287.08c-7.95-15.05-29.92-16.39-41.07-26.57-6.6-6-4.54-12.54-.64-14.8,1.77-1.03,3.8-.85,5.86-.32-.6,12.84,23.67,17.11,26.62,11.07-5.04-1.35-6.78-3.37-6.96-4.27,0,0,6.5.76,9.51-2.61,0,0-5.89-.5-10.19-7.45-2.52-3.98-7.1-7.49-11.82-6.65-2.7.46-4.58,1.79-5.71,3.58l-.32-.09c-15.01-4.01-23.78,14.55-10.79,26.4,9.73,8.84,32.41,14.21,37.27,23.51,8.77,16.99-9.23,35.51-27.4,12.94,0,0-7.42-9.54-16.54-23.57-14.59-22.53-9.48-36.13-2.7-44.12,6.78-7.95,40.46-18.62,45.72-65.26,3.05-26.74-15.26-45.01-27.37-50.08-23.32-9.77-37.55-2.41-43.13,2.7-5.89,5.43-1.88,8.54-1.88,8.54,0,0-13.03,3.21-16.9,6.44-1.95,1.67.43,5.35.43,5.35-9.83,3.24-14.06,6.72-14.06,6.72-.18,2.73,2.7,4.28,2.7,4.28-1.42,8.41,5.43,11.02,5.43,11.02l.18-.05c1.35-2.3,4.12-4.43,7.67-5.67,5.89-2.04,11.64-.75,12.88,2.86,1.24,3.6-2.52,8.14-8.38,10.16-4.29,1.48-8.52,1.19-11.07-.4-2.95,8.96,5.15,15.19,5.15,15.19,0,0,1.53-3.05,6.57-4.65,3.8-1.21,8.16.82,11.89-.45,10.33-4.45,16.11-11.8,18.88-17.82,3.02-6.46-1.99-18.36-1.99-18.36,8.98-1.38,11.54-6.27,11.54-6.27.35,7.41-6.64,9.19-6.64,9.19,5.43,14.02,1.81,25.98-21.97,39.36-10.08,5.7-21.05,5.4-30.13,14.72-13.52,13.98-12.81,30.67-13.88,36.1-3.05,5.71-11.39,11.68-20.3,15.35v-50.72c1.06,1.44,3.19,4.9,6.28,13.03,3.09,8.16,3.55,15.64,3.55,15.64,2.02-.66,4.76-.04,6.18.4,2.02-12.65,4.47-21.26,9.19-27.84-2.73-1.76-8.94-6.13-13.74-11.93-3.94-4.69-11.46-17.1-11.46-17.1-24.31-7.6-54.87-12.1-87.96-12.1s-63.58,4.51-87.91,12.1l-.18.98c-3.44,11.76-10.46,18.61-12.16,21.31,4.14,7.03,5.93,14.38,6.55,20.26,1.64-2.13,3.76-4.9,5.79-7.55v21.25c-2.27.44-4.21.79-5.24.97-2.99.43-6.61-.89-5.69-5.51.92-4.6.86-27.01-18-39.43-12.17-8.02-19.4-18.59-19.51-24.23,0,0,2.45,3.57,7.99,3.05,6.99-.72,9.44-3.48,14.97-2.31,5.51,1.14,5.29,4.12,8.74,4.12,3.94,0,7.13-3.74,7.13-3.74,0,0-.21-2.31-3.21-2.54-3.02-.22-4.05.31-4.97-.57-1.42-1.33-.09-3.05,2.66-2.57,2.77.44,3.48,1.4,7.35.85,0,0,2.8-4.82-2.77-10.28-3.27-3.24-17.71-11.78-22.31-14.98-7.18-5.04-12.88-7.61-20.95-7.38,0,0-3.47-4.19-9.9-6.92-5.99-2.52-8.52-2.73-8.52-2.73,0,0,2.53,7.56,5.51,12.88,0,0-19.7,12.17-18.4,38.23,1.36,28.1,13.52,37.09,12.88,46.73-1.62,24.89-29.96,40.53-36.38,50.44-6.46,9.91-13.37,25.34,6.21,47.92,15.49,17.88,11.05,35.45,5.51,42.16,0,0,.5-5.57-.69-12.21-28.32-3.23-44.9-30.87-20.26-54.58-37.98,8.1-40.46,73.21,22.79,76.2,0,0,2.77,6,2.54,16.61-.09,4.83-.57,10.72.37,11.89.92,1.17,3.41,1.53,2.93,3.62-.46,2.06.47,9.16.47,9.16h19.03s-.83-3.34-2.7-6.99c-2.31-4.51-5.94-6.57-7.54-10.4-3.25-7.6-5.64-24.17-2.69-35.1,5.08-18.71,15.46-29.28,17.75-40.12,1.63-7.6.67-20.52-7.6-28.11,0,0,6.78-5.69,14.8-8.16,14.62-4.56,19.33-7.43,24.56-11.73,5.24-4.28,6.96-9.89,6.96-9.89,0,0-4.06-5.94-4.09-11.5,0-.25.28-.37.4-.19,9.43,13.04,15.71,10.51,37.06-1.12,1.38-.75,3.5-.28,4.19,1.1.67,1.34,3.98,8.2,3.64,15.69-.09,2.13-.07,5.29,1.03,5.54,1.89.45,3.27,1.34,2.32,3.66-.67,1.73-1.74,2.83-2.45,3.87-1.33,2.02.24,6.81,2.15,11.07-2.86-2.6-5.25-5.8-6.11-7.86-.89-2.27,1.17-5,1.53-6.35.26-1.1-.2-1.95-2.41-2.48-2.3-.57-.49-9.97-.71-13.01-.21-3.02-.41-5.09-2.65-5.57-3.05-.65-5.79,2.76-7.75,6.32v68.87c0,11.04,6.33,20.3,15.87,24.88,35.93,17.21,72.08,36.35,72.08,36.35,1.49-.78,36.13-19.13,72.09-36.35,9.48-4.58,15.83-13.84,15.83-24.88v-48.51c-7.42-1.23-11.64,3.1-18.85,3.74-5.93.53-15.12-1.25-18.88-4.91-.28-.28-.18-.6.18-.49,3.76,1.56,10.72,3.22,19.81,1.17,6.78-1.53,9.09-4.37,42.59-10.36,9.3-1.67,17.89-2.73,22.33-6.58,2.7-2.31,5.32-5.28,6.5-7.3.35-.64.75-.5.53.25-.6,2.05-1.38,5.31-3.62,8.79-3.73,6.01-12.67,8.53-12.57,8.74,3.09,15.72,30.17,15.78,38.62,31.12,0,0-21.19,4.79-21.51,23.59-.35,21.51,19.73,31.66,23.82,34.61,5.29,3.8,7.81,13.24,9.3,19.95,1.56,6.96-3.58,13.56-3.58,13.56-7.92-2.2-11.86.92-13.1,3.44-2.98,6.18-5.5,11.68-5.5,11.68h31.16c2.63,0,3.9-.57,4.19-4.15,1.49-19.2-2.38-43.73-2.38-43.73-17.04-16.97-5.47-35.1,1.99-43.39,0,0,.96.67,3.87,2.9,25.88,21.25,50.3-8.22,38.65-30.21M604.7,142.51c-4.83,1.88-7.63,3.92-7.63,3.92,0,0-.28-1.01,1.56-2.74,1.1-1.1,1.74-1.51,1.74-1.51,0,0-.57-.22-1.42-1.46-.92-1.43.07-2.66.07-2.66,0,0,2.06.57,5.47.99,4.29.5,5.71,1.88,5.71,1.88,0,0-2.73.49-5.5,1.59M326.15,136.37c1.29-.2,2.8.04,3.16,1.11.21.75-.14,1.63-.89,2.22-.18.78,0,1.61.21,2.18.15.39.08.45-.28.17-.7-.57-1.98-1.42-3.34-1.9-2.22-.78-4.07-1.01-4.07-1.01,0,0,2.51-2.33,5.21-2.77M305.76,215.92c-2.24,0-4.01-1.82-4.01-4.05s1.77-4.01,4.01-4.01,4.01,1.81,4.01,4.01-1.77,4.05-4.01,4.05M316.15,204.31c-2.24,0-4.05-1.79-4.05-4.02s1.81-4.03,4.05-4.03,4.02,1.81,4.02,4.03-1.81,4.02-4.02,4.02M326.66,192.6c-2.24,0-4.05-1.81-4.05-4.02s1.81-4.07,4.05-4.07,4.01,1.81,4.01,4.07-1.81,4.02-4.01,4.02M452.82,222.59c0-4.63,1.63-8.63,4.05-10.54,2.45,1.92,4.12,5.92,4.12,10.54l1.95,96.26h-12.16l2.05-96.26M382.06,228.81c-.71.02-1.56.09-2.48.24v-7.28c15.74-3.96,32.73-6.78,50.51-8.22v46.85c-10.53.43-20.72,1.12-30.6,2.01-.21-.34-.45-.63-.7-.95-5.97-7.13-9.23-22.54-9.91-25.28-.7-2.77-1.98-7.6-6.81-7.37M395.67,282.89c.71-2.73,1.85-8.94,3.09-12.52.96,4.65,1.83,11.68-.32,15.16-1.15,1.88-2.91,2.3-4.84,1.81.85-1.43,1.68-3.06,2.07-4.45M430.2,361.07c-12.32-6.25-27.08-13.63-41.81-20.69-6.78-3.27-11.05-9.65-11.05-17.21v-15.25c16.48-2.12,34.25-3.58,52.86-4.33v57.49M419.48,179.79c4.47-.3,9.83-2.43,14.27-1.14,3.54,1.03,3.19,5.57.98,6.89-1.55.92-3.32,1.81-7.06,2.17.05,1.23.15,2.51.33,3.04.38,1.15,4.57,5.25,8.27,4.95,0,0,1.92,5.88,1.85,8.7,0,0-.51.95-.92,1.9-2.63.15-5.3.33-7.92.51-.07-1.11.07-2.96,1.7-3.76,0,0,1.37.7,2.06.32.88-.46.57-4.01-.69-5.19,0,0-1.14-.18-2.31-.18-1.46,0-5.08-.7-6.06-2.79,0,0-1.79.7-1.57,2.37.15,1.21,2.25,3.62,2.25,3.62,0,0-2.46,2.5-3.12,6.33-2.85.28-5.68.64-8.45,1.02-.04-1.35.14-3.23,2.45-4.43,0,0,1.19,1.06,2.09.56.96-.56,1.63-1.83,3.25-3.55,0,0-2.26-.5-3.44-.6-2.73-.28-4-4.01-2.69-6.27,0,0-6.83,4.5-9.69,7.34-3.31,3.34-5.4,7.08-6.35,9.09-3.31.62-6.53,1.24-9.7,1.93-.21-1.64-.24-4.58,2.06-4.86,1.89-.21,1.81,1.06,3.53.2,1.28-.64,3.68-7.1,3.57-8.15-.17-1.6-.67-2.66-4.44-.79,0,0-4.72-6.46-10.49-7.37v-8.34s1.99-.93,3.32,1.05c1.28,1.93.14,2.91.35,3.38.19.5,1.15,3.68,9.52,4.05,0,0,.6-2.71,1.3-3.55.67-.89-1.1-3.27-3.57-.28,0,0-2.52-1.38-1.38-4.19,0,0,.95,1.16,3.02.89,1.62-.21,2.37-3.69-.14-3.95-2.84-.31-3.16,1.28-3.16,1.28,0,0-1.35-.96-1.21-2.34.18-1.59,3.16-1.98,3.16-1.98,0,0-.64-1.11,0-1.79.63-.64,6.42-2.54,9.22-1.51,2.38.89,3.55,3.37,3.35,7.16-.12,1.85-.18,8.18,7.26,5.51,3.88-1.38,5.4-2.06,12.85-1.93,8.67-1.05,6.64-3.72,5.82-4.03-5.21-1.81-17.5,5.29-18.8-2.34-.65-3.74,3.27-6.15,6.64-6.47,1.28-.14,19.31-1.09,19.31-1.09-2.5,2.38-5.04,4.46-6.81,4.58,0,0-3.34.64-5.93-1.42l-6.4.41c-4.32.14-6.07,5.41-1.48,5.09M456.87,363.87c-3.23,0-5.81-6.6-5.81-14.77s2.58-14.73,5.81-14.73,5.79,6.57,5.79,14.73-2.56,14.77-5.79,14.77M471.88,328.27c0,1.46-1.17,2.59-2.63,2.59h-24.79c-1.43,0-2.6-1.14-2.6-2.59v-4.61c0-.43.11-.78.25-1.14,4.48,1.03,9.51,1.6,14.75,1.6s10.22-.57,14.73-1.6c.18.35.28.71.28,1.14v4.61M482.82,193.51c-1.03-1.3-2.52,0-2.52,0,0,0-2.27-3.76-4.29-4.78-1.7-.86-4.19,1.02-4.19,1.02v-11.7c2.73-.58,3.94-.08,4.08,1.16.11,1.38-.82,2.88-.75,3.92.14,1.62,1.56,2.13,3.41,3.04,2.45,1.18,4.76.67,4.76.67.32-2.48,2.66-4.32,3.58-5.86.53-.82.07-1.9-1.14-1.98-3.27-.19-4.76,2.72-4.76,2.72-2.24-2.45-1.38-3.72-.35-3.79.96-.08,5.4,0,4.97-1.5-.57-2.08-4.22-.38-5.71-.06-1.49.35-2.13-2.84-1.35-3.27.99-.62,2.48.2,3.48.18.99-.04,2.34-.72,2.34-.72-.18-1.46.71-1.77,1.67-2.01,1.53-.35,5.47.09,6.74.17,1.24.07,1.85.11,2.73-.28.89-.39.89.39.6,1.28-.25.85-1.49,2.39-1.49,2.39.75,3.8-1.31,6.16-2.24,6.99-.21.24-.6.66-.64,1.09-.39,2.91.35,4.63,2.63,4.44,1.6-.17,3.48-2.02,3.44-5.45-.11-3.6.07-5.9,3.58-7.45,8.84-3.99,23.53,1.74,21.05,1.98-7.31.64-10.36,4.09-12.81,7.38-1.42,1.92-4.12,3.24-5.86,3.92-.35.17-.25.38.07.32,1.24-.11,3.12,0,5.22.78,1.88.64,4.69,2.47,5.82,3.01,4.15,1.92,6.64,1.1,7.17.33,2.38-3.7-6.35-7.89-1.03-12.04,1.06-.84,3.58-.78,4.97-.59.28.02.35-.11.39-.26.07-.21-.14-.98-.21-1.3-.04-.14,0-.26.32-.15,3.19.97,5.5,3.9,5.64,4.08.11.18.04.32-.14.33-.11.02-4.01.52-6,1.21-.32.13-.46-.07-.35-.28.18-.33.32-.76.32-1.15,0-.27-.21-.38-.39-.39-1.49-.38-3.62.15-3.66,1.54-.07,2.22,5.43,5.92,2.38,10.49-1.81,2.71-5.36,2.63-9.62,1.24-.14.39-.5,1.57,0,3.35.75,2.54,5.82,4.14,5.82,4.14,0,0,.18,3.6.18,5.69,0,3.05.85,4.47.85,4.47l-2.77-.43c-2.59-.5-5.22-.96-7.92-1.4.28-1.28.92-2.76,2.59-3.08,1.06-.19,1.56.98,2.98.53,1.53-.44.6-3.73.6-3.73,0,0-1.99,0-5.25-1.4-3.16-1.35-3.98-3.76-3.98-3.76,0,0-1.14.82-1.21,2.31-.04,1.47,1.67,2.18,1.67,2.18,0,0-2.13,1.46-2.77,3.01-.46,1.01-.5,2.39-.35,3.05-3.3-.46-6.71-.91-10.12-1.28.32-.78,1.21-2.59,2.17-2.97,1.35-.54,2.52,1.09,4.26.39,2.95-1.14,1.85-2.88,1.85-2.88-3.02-.26-5.82-1.5-5.75-3.6.04-1.76,4.47-4.82,4.47-4.82-4.37-.86-17.36,6.45-18.92,10.22-.39.96.04,1.7.46,2.56-3.3-.25-6.6-.44-9.94-.62.04-.41.25-1.81,1.24-2.88.99-1.06,2.38-.73,3.12-.45.32.13.78.07.92-.01,4.4-3.18,4.79-8.23,3.9-9.26M536.24,307.91v15.25c0,7.56-4.26,13.95-11.04,17.21-14.91,7.13-29.6,14.48-41.85,20.69v-57.49c18.67.75,36.42,2.21,52.89,4.33M512.95,264.93c-3.27,1.42-7.13,5.32-8.09,6.33-.46-.51-.75-1.04-.92-1.5-.25-.84-.35-1.62-.35-2.38.92-.98,2.84-2.51,6.67-3.58,3.27-.92,2.7,1.14,2.7,1.14M536.13,255.84c-6.42,1.47-12.46,1.28-16.15-1.53-4.15-3.15-6.85-1.81-9.34-.43-3.34,1.86-5.22,4.91-6.32,7.7-6.99-.5-14.02-.92-20.84-1.19v-46.85c17.78,1.44,36.95,4.5,52.64,8.44v33.86M666.75,150.04c-.07-.33-.53-2,1.1-2.18.67-.06,1.17.47,1.42,1.1,4.26,8.39,6.53,44.88-27.01,67.91l-4.12-4.48c2.8-1.95,17.71-12.06,24.85-28.67,7.74-18.21,4.22-31.96,3.76-33.68M653.87,156.93c-.07-.32-.28-1.99,1.17-1.99,1.03,0,1.38.77,1.46.89,1.7,3.27,1.42,18.35-3.76,27.51-4.97,8.86-13.24,16.72-20.41,22.74l-4.15-4.65c4.47-3.54,15.48-11.43,21.33-22.54,4.15-7.87,4.61-20.16,4.37-21.96M609.21,203.6c-2.24,0-4.08-1.79-4.08-4.01s1.85-4.05,4.08-4.05,4.01,1.81,4.01,4.05-1.81,4.01-4.01,4.01M619.51,215.18c-2.24,0-4.01-1.77-4.01-4.01s1.77-4.02,4.01-4.02,4.01,1.81,4.01,4.02-1.77,4.01-4.01,4.01M622.17,195.14l-3.73-4.11c9.41-6.22,18.85-14.25,21.65-24.22l.07-.14c.21-.89.78-1.66,1.6-1.55.78.09,1.1.59,1.17,1.37,0,0,.32,5.05-5.29,13.39-5.08,7.48-12.21,12.84-15.48,15.25M629.84,218.75c2.24,0,4.01,1.79,4.01,3.99s-1.77,4.07-4.01,4.07-4.05-1.83-4.05-4.07,1.81-3.99,4.05-3.99"/>
  </g>
</svg>